<svg width="410" height="24" viewBox="0 0 410 24" fill="none" xmlns="http://www.w3.org/2000/svg">
<path d="M23.5869 3.33978L3.23529 3.33977L3.23529 23.6914L-0.000102569 20.456L-9.98604e-05 1.77118e-05L20.3515 1.88867e-05L23.5869 3.33978Z" fill="#00BDFF"/>
<path d="M18.7861 7.09687L6.99258 7.09687L6.99258 18.8904L6.15765 18.0554L6.15765 6.26193L17.9512 6.26193L18.7861 7.09687Z" fill="#00BDFF"/>
<path d="M401.918 18.8904L401.918 7.09687L390.125 7.09687L390.96 6.26193L402.753 6.26193L402.753 18.0554L401.918 18.8904Z" fill="#00BDFF"/>
<path d="M405.78 23.6914L405.78 3.33977L385.324 3.33977L388.664 1.78986e-05L409.016 1.90735e-05L409.016 20.456L405.78 23.6914Z" fill="#00BDFF"/>
<path d="M3.23535 3.33983L406.928 3.33984L406.928 2.29617L3.23535 2.29615L3.23535 3.33983Z" fill="#00BDFF"/>
</svg>
