<svg width="725" height="42" viewBox="0 0 725 42" fill="none" xmlns="http://www.w3.org/2000/svg">
<path d="M41.8086 5.92037L5.73436 5.92037L5.73435 41.9946L-0.000540567 36.2597L-0.000533484 0.00049046L36.0737 0.000491872L41.8086 5.92037Z" fill="#00BDFF"/>
<path d="M33.2988 12.5802L12.3942 12.5802L12.3942 33.4847L10.9142 32.0048L10.9142 11.1002L31.8188 11.1002L33.2988 12.5802Z" fill="#00BDFF"/>
<path d="M712.42 33.4846L712.42 12.5801L691.516 12.5801L692.996 11.1001L713.9 11.1001L713.9 32.0046L712.42 33.4846Z" fill="#00BDFF"/>
<path d="M719.265 41.9944L719.265 5.92013L683.006 5.92013L688.926 0.000246544L725 0.000247955L725 36.2595L719.265 41.9944Z" fill="#00BDFF"/>
<path d="M5.7356 5.92015L721.301 5.92017L721.301 4.0702L5.7356 4.07019L5.7356 5.92015Z" fill="#00BDFF"/>
</svg>
