<svg width="347" height="156" viewBox="0 0 347 156" fill="none" xmlns="http://www.w3.org/2000/svg">
<path d="M345.817 147.462L346.026 147.313V147.056V14.1111V13.8542L345.817 13.7046L335.95 6.63601L335.819 6.54248H335.659H279.433H68.4935H12.2678H12.1072L11.9766 6.63601L2.10921 13.7046L1.90039 13.8542V14.1111V147.056V147.313L2.10921 147.462L11.9766 154.531L12.1072 154.624H12.2678H68.4935H68.6566L68.7883 154.528L74.9322 150.042L83.3647 143.885H264.376L272.808 150.042L272.814 150.046L279.144 154.532L279.274 154.624H279.433H335.659H335.819L335.95 154.531L345.817 147.462Z" fill="#021428" stroke="black"/>
<path d="M335.925 4.80883L329.407 0.0386963H284.717L278.199 4.80883H68.7119L62.3807 0.174986H17.1314L10.8002 4.80883L0 12.7136V147.095L10.8002 155H68.7119L76.7189 149.14H270.006L278.013 155H335.925L346.725 147.095V12.7136L335.925 4.80883ZM345.049 146.55L335.18 153.637H278.944L272.799 149.14L264.233 142.87H82.6777L74.112 149.14L67.967 153.637H11.7313L1.86211 146.55V13.3951L11.7313 6.30802H67.967H278.944H335.18L345.049 13.3951V146.55Z" fill="#00BAE3"/>
</svg>
