<svg width="212" height="130" viewBox="0 0 212 130" fill="none" xmlns="http://www.w3.org/2000/svg">
<path d="M210.525 122.905L210.675 122.758V122.548V11.7303V11.5205L210.525 11.3735L204.523 5.48139L204.377 5.3382H204.173H169.972H41.6623H7.46159H7.25719L7.11132 5.48139L1.1092 11.3735L0.959473 11.5205V11.7303V122.548V122.758L1.1092 122.905L7.11132 128.797L7.25719 128.94H7.46159H41.6623H41.8695L42.016 128.794L45.7532 125.054L50.8161 119.989H160.705L165.768 125.054L165.773 125.06L169.623 128.799L169.769 128.94H169.972H204.173H204.377L204.523 128.797L210.525 122.905Z" fill="#021428" stroke="black"/>
<path d="M204.335 3.97621L200.371 0H173.186L169.222 3.97621H41.7958L37.9447 0.113606H10.4206L6.56953 3.97621L0 10.5653V122.581L6.56953 129.17H41.7958L46.6663 124.285H164.238L169.109 129.17H204.335L210.905 122.581V10.5653L204.335 3.97621ZM209.885 122.126L203.882 128.034H169.675L165.937 124.285L160.727 119.059H50.2909L45.0806 124.285L41.3427 128.034H7.13587L1.13268 122.126V11.1334L7.13587 5.22587H41.3427H169.675H203.882L209.885 11.1334V122.126Z" fill="#00BAE3"/>
</svg>
