<svg xmlns="http://www.w3.org/2000/svg" xmlns:xlink="http://www.w3.org/1999/xlink" viewBox="0 0 359.12 107.61"><defs><style>.cls-1{fill:none;}.cls-2{fill:#f0c735;}.cls-3{clip-path:url(#clip-path);}.cls-4{fill:#181818;}</style><clipPath id="clip-path" transform="translate(0 0)"><rect class="cls-1" width="359.12" height="107.61"/></clipPath></defs><title>logo</title><rect class="cls-2" width="359.12" height="107.61"/><g class="cls-3"><path class="cls-4" d="M207.45,50.53c0-6.58,6.08-11,11.77-11,6.9,0,11.2,4.87,11.2,12.72V82h7.82V51.29c0-5.69,3.14-11.77,12-11.77,6.86,0,11.29,5,11.29,12.72V82h7.82V52.24c0-12.38-7-20.07-18.16-20.07A19,19,0,0,0,235.28,40c-2.34-3.81-6.69-7.83-14.64-7.83a17.41,17.41,0,0,0-13.2,5.43V32.84h-7.82V82h7.82Z" transform="translate(0 0)"/><path class="cls-4" d="M118,56.71c0-7.44-2.38-13.73-6.75-18.21A22.32,22.32,0,0,0,95.08,32c-14.33,0-24.74,10.68-24.74,25.4,0,14.9,10.09,25.31,24.54,25.31,9.58,0,17-4.13,21.58-11.94l.39-.67-6.7-4.31-.43.73c-3.54,6-8.25,8.84-14.83,8.84-9.17,0-16.22-6.86-16.7-16.1H118ZM78.56,52.19A16.68,16.68,0,0,1,94.89,39.33c7.79,0,13.78,5.13,15.16,12.86Z" transform="translate(0 0)"/><polygon class="cls-4" points="44.97 40.19 67.37 40.19 67.37 32.84 37.15 32.84 37.15 82.12 44.97 82.12 44.97 40.19"/><path class="cls-4" d="M300.52,82.69c9.58,0,17-4.13,21.57-11.94l.39-.67-6.7-4.31-.43.73c-3.54,6-8.25,8.84-14.83,8.84-9.17,0-16.22-6.86-16.7-16.1h39.81V56.71c0-7.44-2.38-13.73-6.75-18.21A22.32,22.32,0,0,0,300.71,32C286.38,32,276,42.67,276,57.39c0,14.9,10.09,25.31,24.54,25.31m-16.34-30.5a16.68,16.68,0,0,1,16.34-12.86c7.8,0,13.78,5.13,15.16,12.86Z" transform="translate(0 0)"/><rect class="cls-4" x="181.66" y="18.32" width="7.82" height="63.71"/><path class="cls-4" d="M148.59,82.88a23.86,23.86,0,0,0,15.2-5.26v4.5h7.73V32.94h-7.73v4.52a24.1,24.1,0,0,0-15.2-5.29,24.63,24.63,0,0,0-17.93,7.32,25.74,25.74,0,0,0-7,18.08,25.59,25.59,0,0,0,7,18,24.69,24.69,0,0,0,17.93,7.27m-17.1-25.31c0-10,7.19-17.58,16.72-17.58,9.89,0,16.53,7.06,16.53,17.58s-6.65,17.49-16.53,17.49c-9.53,0-16.72-7.52-16.72-17.49" transform="translate(0 0)"/></g></svg>