<svg width="112" height="18" viewBox="0 0 112 18" fill="none" xmlns="http://www.w3.org/2000/svg">
<path d="M42.7043 9.09714C42.7043 7.39513 44.2334 6.25067 45.6494 6.25067C47.3768 6.25067 48.4529 7.51251 48.4529 9.53731V17.2551H50.4069V9.30255C50.4069 7.8353 51.1998 6.25067 53.4086 6.25067C55.1361 6.25067 56.2405 7.54185 56.2405 9.53731V17.2551H58.1945V9.53731C58.1945 6.33871 56.4387 4.34324 53.6352 4.34324C51.9927 4.34324 50.5485 5.07687 49.6706 6.36805C49.0759 5.37032 47.9998 4.34324 45.9892 4.34324C44.6299 4.34324 43.4972 4.84211 42.6759 5.75181V4.51932H40.722V17.2257H42.6759V9.09714H42.7043ZM20.276 10.6818C20.276 8.745 19.6813 7.13102 18.5769 5.98657C17.5574 4.9008 16.1132 4.28455 14.5274 4.28455C10.9309 4.28455 8.32563 7.04299 8.32563 10.8578C8.32563 14.702 10.846 17.4018 14.4707 17.4018C16.8778 17.4018 18.7468 16.3454 19.8796 14.3206L19.9645 14.1445L18.2937 13.0294L18.1805 13.2054C17.3026 14.7607 16.1132 15.4944 14.4707 15.4944C12.1769 15.4944 10.3929 13.7043 10.2796 11.3274H20.276V10.6818V10.6818ZM10.3929 9.53731C10.8743 7.5712 12.5168 6.22133 14.4991 6.22133C16.453 6.22133 17.9539 7.54185 18.2937 9.53731H10.3929ZM1.95397 6.42674H7.56103V4.51932H0V17.2551H1.95397V6.42674ZM66.0387 17.4018C68.4457 17.4018 70.3148 16.3454 71.4475 14.3206L71.5325 14.1445L69.8617 13.0294L69.7484 13.2054C68.8705 14.7607 67.6811 15.4944 66.0387 15.4944C63.7449 15.4944 61.9608 13.7043 61.8475 11.3274H71.844V10.6818C71.844 8.745 71.2493 7.13102 70.1448 5.98657C69.1254 4.9008 67.6811 4.28455 66.0953 4.28455C62.4989 4.28455 59.8936 7.04299 59.8936 10.8578C59.8936 14.7314 62.4139 17.4018 66.0387 17.4018ZM61.9325 9.53731C62.4139 7.5712 64.0564 6.22133 66.0387 6.22133C67.9926 6.22133 69.4935 7.54185 69.8333 9.53731H61.9325ZM38.2016 0.763153H36.2476V17.2551H38.2016V0.763153ZM27.9503 17.4605C29.3946 17.4605 30.7539 16.9616 31.7733 16.1106V17.2844H33.699V4.54866H31.7733V5.72246C30.7255 4.84211 29.3663 4.34324 27.9503 4.34324C26.1946 4.34324 24.6087 5.01818 23.4477 6.25067C22.315 7.45382 21.6919 9.12648 21.6919 10.9165C21.6919 12.7359 22.315 14.3792 23.4477 15.5824C24.5804 16.7855 26.1946 17.4605 27.9503 17.4605ZM23.6459 10.9165C23.6459 8.33417 25.4583 6.36805 27.8371 6.36805C30.3291 6.36805 31.9716 8.18744 31.9716 10.9165C31.9716 13.6163 30.3008 15.4357 27.8371 15.4357C25.4583 15.4357 23.6459 13.4989 23.6459 10.9165Z" fill="white"/>
<path d="M100.304 9.83076C100.304 11.0339 99.3979 12.0023 98.1803 12.0023H96.8776V14.2619H95.8298V7.65923H98.1803C99.3696 7.65923 100.304 8.59827 100.304 9.83076ZM99.228 9.83076C99.228 9.15583 98.7749 8.68631 98.1519 8.68631H96.8493V10.9752H98.1519C98.8033 10.9752 99.228 10.4764 99.228 9.83076ZM103.447 9.44928V10.5644C102.796 10.5057 102.032 10.8285 102.032 11.8849V14.2619H101.04V9.53731H102.032V10.3296C102.315 9.68404 102.881 9.44928 103.447 9.44928ZM103.702 11.9143C103.702 10.5057 104.778 9.41993 106.109 9.41993C107.469 9.41993 108.516 10.5057 108.516 11.9143C108.516 13.3228 107.44 14.4086 106.109 14.4086C104.778 14.3792 103.702 13.2935 103.702 11.9143ZM107.554 11.9143C107.554 11.0633 106.931 10.4177 106.138 10.4177C105.345 10.4177 104.722 11.0633 104.722 11.9143C104.722 12.7653 105.345 13.4109 106.138 13.4109C106.931 13.3815 107.554 12.7653 107.554 11.9143ZM109.593 5.63443C110.385 5.63443 111.037 6.30936 111.037 7.13102V14.9074C111.037 15.7291 110.385 16.404 109.593 16.404H94.3006C93.5077 16.404 92.8564 15.7291 92.8564 14.9074V7.13102C92.8564 6.30936 93.5077 5.63443 94.3006 5.63443H109.593ZM109.593 4.6367H94.3006C92.9697 4.6367 91.8936 5.75181 91.8936 7.13102V14.9074C91.8936 16.2867 92.9697 17.4018 94.3006 17.4018H109.593C110.924 17.4018 112 16.2867 112 14.9074V7.13102C112.028 5.75181 110.924 4.6367 109.593 4.6367Z" fill="white"/>
<path d="M83.9645 17.5485C86.5981 17.5485 88.2689 16.1106 88.2689 13.8217C88.2689 12.4425 87.7025 11.386 86.5981 10.7698L86.4848 10.7111L86.5981 10.6524C87.4476 10.0949 87.8724 9.18517 87.8724 7.98202C87.8724 5.4877 85.9184 4.37259 83.9928 4.37259C82.0671 4.37259 80.1132 5.4877 80.1132 7.98202C80.1132 9.18517 80.5379 10.0949 81.3592 10.6524L81.4725 10.7111L81.3592 10.7698C80.2831 11.386 79.6884 12.4718 79.6884 13.8217C79.6317 16.0812 81.3309 17.5485 83.9645 17.5485ZM83.9645 6.22132C85.1538 6.22132 85.9468 6.95495 85.9468 8.07006C85.9468 9.12648 85.2105 9.77207 83.9645 9.77207C82.7185 9.77207 81.9822 9.12648 81.9822 8.07006C81.9822 6.95495 82.7468 6.22132 83.9645 6.22132ZM83.9645 11.5328C85.437 11.5328 86.3432 12.3251 86.3432 13.6163C86.3432 14.9074 85.437 15.6998 83.9645 15.6998C82.4919 15.6998 81.5574 14.9074 81.5574 13.6163C81.5574 12.3544 82.4636 11.5328 83.9645 11.5328Z" fill="white"/>
</svg>
