<svg width="239" height="35" viewBox="0 0 239 35" fill="none" xmlns="http://www.w3.org/2000/svg">
<path d="M90.9972 17.1374C90.9972 13.6375 94.2557 11.2841 97.2728 11.2841C100.954 11.2841 103.247 13.8789 103.247 18.0425V33.9127H107.41V17.5598C107.41 14.5427 109.1 11.2841 113.807 11.2841C117.488 11.2841 119.841 13.9392 119.841 18.0425V33.9127H124.005V18.0425C124.005 11.4652 120.263 7.36184 114.29 7.36184C110.79 7.36184 107.712 8.87041 105.842 11.5255C104.574 9.47384 102.281 7.36184 97.9969 7.36184C95.1005 7.36184 92.6868 8.38767 90.9368 10.2583V7.7239H86.7732V33.8524H90.9368V17.1374H90.9972ZM43.2056 20.3959C43.2056 16.4133 41.9383 13.0944 39.585 10.741C37.4126 8.50836 34.3351 7.24115 30.9559 7.24115C23.2924 7.24115 17.7408 12.9134 17.7408 20.758C17.7408 28.6629 23.1113 34.2145 30.8352 34.2145C35.9644 34.2145 39.947 32.0421 42.3607 27.8784L42.5418 27.5164L38.9815 25.2234L38.7402 25.5854C36.8695 28.7836 34.3351 30.2922 30.8352 30.2922C25.9475 30.2922 22.1459 26.6112 21.9045 21.7235H43.2056V20.3959V20.3959ZM22.1459 18.0425C23.1717 13.9996 26.6716 11.2238 30.8956 11.2238C35.0593 11.2238 38.2574 13.9392 38.9815 18.0425H22.1459ZM4.16366 11.6462H16.1116V7.7239H0V33.9127H4.16366V11.6462ZM140.72 34.2145C145.849 34.2145 149.832 32.0421 152.245 27.8784L152.426 27.5164L148.866 25.2234L148.625 25.5854C146.754 28.7836 144.22 30.2922 140.72 30.2922C135.832 30.2922 132.03 26.6112 131.789 21.7235H153.09V20.3959C153.09 16.4133 151.823 13.0944 149.469 10.741C147.297 8.50836 144.22 7.24115 140.84 7.24115C133.177 7.24115 127.625 12.9134 127.625 20.758C127.625 28.7232 132.996 34.2145 140.72 34.2145ZM131.97 18.0425C132.996 13.9996 136.496 11.2238 140.72 11.2238C144.883 11.2238 148.082 13.9392 148.806 18.0425H131.97ZM81.4026 0H77.239V33.9127H81.4026V0ZM59.5585 34.3351C62.636 34.3351 65.5324 33.3093 67.7048 31.5594V33.9731H71.8081V7.78424H67.7048V10.198C65.4721 8.38767 62.5756 7.36184 59.5585 7.36184C55.8172 7.36184 52.438 8.74973 49.964 11.2841C47.5502 13.7582 46.2227 17.1977 46.2227 20.8787C46.2227 24.6199 47.5502 27.9991 49.964 30.4732C52.3777 32.9473 55.8172 34.3351 59.5585 34.3351ZM50.3864 20.8787C50.3864 15.5685 54.2483 11.5255 59.3171 11.5255C64.6273 11.5255 68.1272 15.2668 68.1272 20.8787C68.1272 26.4302 64.567 30.1715 59.3171 30.1715C54.2483 30.1715 50.3864 26.1888 50.3864 20.8787Z" fill="white"/>
<path d="M213.735 18.646C213.735 21.12 211.804 23.1114 209.209 23.1114H206.433V27.7578H204.201V14.1806H209.209C211.744 14.1806 213.735 16.1116 213.735 18.646ZM211.442 18.646C211.442 17.2581 210.476 16.2926 209.149 16.2926H206.373V20.9994H209.149C210.537 20.9994 211.442 19.9735 211.442 18.646ZM220.433 17.8615V20.1546C219.045 20.0339 217.416 20.6976 217.416 22.87V27.7578H215.304V18.0426H217.416V19.6718C218.019 18.3443 219.226 17.8615 220.433 17.8615ZM220.976 22.9303C220.976 20.0339 223.269 17.8012 226.105 17.8012C229.002 17.8012 231.234 20.0339 231.234 22.9303C231.234 25.8268 228.941 28.0595 226.105 28.0595C223.269 27.9991 220.976 25.7665 220.976 22.9303ZM229.183 22.9303C229.183 21.1804 227.855 19.8528 226.165 19.8528C224.476 19.8528 223.148 21.1804 223.148 22.9303C223.148 24.6803 224.476 26.0078 226.165 26.0078C227.855 25.9475 229.183 24.6803 229.183 22.9303ZM233.527 10.0169C235.217 10.0169 236.605 11.4048 236.605 13.0944V29.0853C236.605 30.7749 235.217 32.1628 233.527 32.1628H200.942C199.253 32.1628 197.865 30.7749 197.865 29.0853V13.0944C197.865 11.4048 199.253 10.0169 200.942 10.0169H233.527ZM233.527 7.96529H200.942C198.106 7.96529 195.813 10.2583 195.813 13.0944V29.0853C195.813 31.9214 198.106 34.2145 200.942 34.2145H233.527C236.363 34.2145 238.656 31.9214 238.656 29.0853V13.0944C238.717 10.2583 236.363 7.96529 233.527 7.96529Z" fill="white"/>
<path d="M178.917 34.5162C184.529 34.5162 188.089 31.5594 188.089 26.8526C188.089 24.0165 186.882 21.8441 184.529 20.5769L184.287 20.4563L184.529 20.3356C186.339 19.1891 187.244 17.3184 187.244 14.8444C187.244 9.71521 183.081 7.42218 178.977 7.42218C174.874 7.42218 170.71 9.71521 170.71 14.8444C170.71 17.3184 171.615 19.1891 173.365 20.3356L173.607 20.4563L173.365 20.5769C171.072 21.8441 169.805 24.0768 169.805 26.8526C169.684 31.499 173.305 34.5162 178.917 34.5162ZM178.917 11.2238C181.451 11.2238 183.141 12.7324 183.141 15.0254C183.141 17.1977 181.572 18.5253 178.917 18.5253C176.262 18.5253 174.693 17.1977 174.693 15.0254C174.693 12.7324 176.322 11.2238 178.917 11.2238ZM178.917 22.1459C182.055 22.1459 183.986 23.7751 183.986 26.4302C183.986 29.0853 182.055 30.7146 178.917 30.7146C175.779 30.7146 173.788 29.0853 173.788 26.4302C173.788 23.8355 175.719 22.1459 178.917 22.1459Z" fill="white"/>
</svg>
