<svg width="93" height="18" viewBox="0 0 93 18" fill="none" xmlns="http://www.w3.org/2000/svg">
<path d="M45.1592 8.53211C45.1592 6.79522 46.7743 5.60682 48.2674 5.60682C50.0957 5.60682 51.2231 6.88663 51.2231 8.98919V16.8814H53.2952V8.74542C53.2952 7.2523 54.118 5.63729 56.4643 5.63729C58.2926 5.63729 59.4505 6.94758 59.4505 9.01966V16.9119H61.5226V8.98919C61.5226 5.69823 59.6638 3.65662 56.7081 3.65662C54.9712 3.65662 53.4476 4.41841 52.503 5.7287C51.8935 4.72313 50.7356 3.65662 48.633 3.65662C47.2009 3.65662 45.982 4.17464 45.1288 5.0888V3.83945H43.0567V16.8814H45.1288V8.53211H45.1592ZM21.4522 10.1776C21.4522 8.19692 20.8123 6.52097 19.6543 5.36304C18.5573 4.23558 17.0338 3.62615 15.3578 3.62615C11.5488 3.62615 8.80636 6.46003 8.80636 10.3604C8.80636 14.3218 11.4879 17.0642 15.3273 17.0642C17.8565 17.0642 19.8372 15.9672 21.056 13.8952L21.1474 13.7123L19.3801 12.5849L19.2582 12.7677C18.3136 14.3827 17.0642 15.114 15.3273 15.114C12.8896 15.114 11.0308 13.2857 10.9089 10.848H21.4522V10.1776ZM10.9699 8.98919C11.4574 6.97805 13.2248 5.57634 15.2969 5.57634C17.3689 5.57634 18.9535 6.94758 19.3191 8.98919H10.9699ZM2.07208 5.78965H8.01409V3.83945H0V16.9119H2.07208V5.78965ZM69.8414 17.0642C72.3706 17.0642 74.3513 15.9672 75.5701 13.8952L75.6616 13.7123L73.8942 12.5849L73.7723 12.7677C72.8277 14.3827 71.5783 15.114 69.8414 15.114C67.4037 15.114 65.5449 13.2857 65.423 10.848H75.9663V10.1776C75.9663 8.19692 75.3264 6.52097 74.1684 5.36304C73.0714 4.23558 71.5479 3.62615 69.8719 3.62615C66.0629 3.62615 63.3205 6.46003 63.3205 10.3604C63.3205 14.3218 66.002 17.0642 69.8414 17.0642ZM65.5144 8.98919C66.002 6.97805 67.7693 5.57634 69.8414 5.57634C71.9135 5.57634 73.498 6.94758 73.8637 8.98919H65.5144ZM40.4056 0H38.3336V16.8814H40.4056V0ZM29.5577 17.1252C31.0813 17.1252 32.5134 16.6071 33.58 15.7235V16.9119H35.6216V3.86992H33.58V5.05832C32.483 4.17464 31.0508 3.65662 29.5577 3.65662C27.6989 3.65662 26.0229 4.35747 24.8041 5.60682C23.6157 6.85616 22.9453 8.53211 22.9453 10.3909C22.9453 12.2497 23.6157 13.9561 24.8041 15.175C25.9925 16.4243 27.6989 17.1252 29.5577 17.1252ZM25.0174 10.4214C25.0174 7.77032 26.9371 5.75918 29.4663 5.75918C32.0868 5.75918 33.8542 7.61796 33.8542 10.4214C33.8542 13.1943 32.0868 15.0531 29.4663 15.0531C26.9066 15.0531 25.0174 13.0419 25.0174 10.4214Z" fill="white"/>
<path d="M88.4596 17.2166C91.263 17.2166 92.9999 15.7539 92.9999 13.4076C92.9999 12.0059 92.3905 10.9089 91.2326 10.269L91.1107 10.2081L91.2326 10.1471C92.1163 9.56815 92.5733 8.65399 92.5733 7.43512C92.5733 4.87549 90.5013 3.71756 88.4596 3.71756C86.418 3.71756 84.3459 4.87549 84.3459 7.43512C84.3459 8.68447 84.7726 9.59862 85.6562 10.1471L85.7476 10.2081L85.6258 10.269C84.4678 10.9089 83.8584 12.0059 83.8584 13.4076C83.8889 15.7235 85.6867 17.2166 88.4596 17.2166ZM88.4596 5.57634C89.7395 5.57634 90.5622 6.33814 90.5622 7.46559C90.5622 8.56258 89.7699 9.20249 88.4596 9.20249C87.1493 9.20249 86.3571 8.56258 86.3571 7.46559C86.3571 6.33814 87.1798 5.57634 88.4596 5.57634ZM88.4596 11.0613C90.0137 11.0613 90.9888 11.884 90.9888 13.1943C90.9888 14.5046 90.0137 15.3273 88.4596 15.3273C86.8751 15.3273 85.9 14.5046 85.9 13.1943C85.9 11.884 86.8751 11.0613 88.4596 11.0613Z" fill="white"/>
</svg>
