<svg width="188" height="35" viewBox="0 0 188 35" fill="none" xmlns="http://www.w3.org/2000/svg">
<path d="M91.2897 17.2477C91.2897 13.7366 94.5544 11.3342 97.5728 11.3342C101.269 11.3342 103.548 13.9214 103.548 18.1717V34.1258H107.737V17.6789C107.737 14.6606 109.4 11.3958 114.143 11.3958C117.839 11.3958 120.18 14.0446 120.18 18.2333V34.1874H124.368V18.1717C124.368 11.519 120.611 7.39188 114.636 7.39188C111.125 7.39188 108.045 8.93185 106.135 11.5806C104.903 9.54784 102.562 7.39188 98.312 7.39188C95.4168 7.39188 92.9529 8.43906 91.2281 10.287V7.76147H87.0393V34.1258H91.2281V17.2477H91.2897ZM43.3657 20.5741C43.3657 16.5701 42.0721 13.1822 39.7313 10.8414C37.5138 8.56226 34.4338 7.33028 31.0459 7.33028C23.346 7.33028 17.8021 13.059 17.8021 20.9436C17.8021 28.9515 23.2228 34.4954 30.9843 34.4954C36.097 34.4954 40.1009 32.2779 42.5649 28.0891L42.7497 27.7195L39.1769 25.4404L38.9305 25.81C37.021 29.0747 34.4954 30.5531 30.9843 30.5531C26.0564 30.5531 22.2988 26.8571 22.0524 21.9292H43.3657V20.5741ZM22.1756 18.1717C23.1612 14.1062 26.734 11.2726 30.9227 11.2726C35.1114 11.2726 38.3146 14.0446 39.0537 18.1717H22.1756ZM4.18873 11.7038H16.2005V7.76147H0V34.1874H4.18873V11.7038ZM141.185 34.4954C146.298 34.4954 150.301 32.2779 152.765 28.0891L152.95 27.7195L149.378 25.4404L149.131 25.81C147.222 29.0747 144.696 30.5531 141.185 30.5531C136.257 30.5531 132.499 26.8571 132.253 21.9292H153.566V20.5741C153.566 16.5701 152.273 13.1822 149.932 10.8414C147.714 8.56226 144.634 7.33028 141.246 7.33028C133.547 7.33028 128.003 13.059 128.003 20.9436C128.003 28.9515 133.423 34.4954 141.185 34.4954ZM132.438 18.1717C133.423 14.1062 136.996 11.2726 141.185 11.2726C145.374 11.2726 148.577 14.0446 149.316 18.1717H132.438ZM81.6802 0H77.4915V34.1258H81.6802V0ZM59.751 34.6186C62.8309 34.6186 65.7261 33.5714 67.8821 31.7851V34.1874H72.0092V7.82307H67.8821V10.2254C65.6645 8.43906 62.7693 7.39188 59.751 7.39188C55.9935 7.39188 52.6055 8.80865 50.1416 11.3342C47.7392 13.8598 46.384 17.2477 46.384 21.0052C46.384 24.7628 47.7392 28.2123 50.1416 30.6763C52.5439 33.2018 55.9935 34.6186 59.751 34.6186ZM50.5728 21.0668C50.5728 15.7077 54.4535 11.6422 59.5662 11.6422C64.8637 11.6422 68.4365 15.3997 68.4365 21.0668C68.4365 26.6724 64.8637 30.4299 59.5662 30.4299C54.3919 30.4299 50.5728 26.3644 50.5728 21.0668Z" fill="white"/>
<path d="M178.822 34.8034C184.489 34.8034 188 31.8467 188 27.1035C188 24.27 186.768 22.0524 184.427 20.7589L184.181 20.6357L184.427 20.5125C186.214 19.3421 187.138 17.4941 187.138 15.0301C187.138 9.85584 182.949 7.51508 178.822 7.51508C174.695 7.51508 170.506 9.85584 170.506 15.0301C170.506 17.5557 171.368 19.4037 173.155 20.5125L173.34 20.6357L173.093 20.7589C170.752 22.0524 169.521 24.27 169.521 27.1035C169.582 31.7851 173.216 34.8034 178.822 34.8034ZM178.822 11.2726C181.409 11.2726 183.072 12.8126 183.072 15.0917C183.072 17.3093 181.471 18.6029 178.822 18.6029C176.173 18.6029 174.572 17.3093 174.572 15.0917C174.572 12.8126 176.235 11.2726 178.822 11.2726ZM178.822 22.3604C181.963 22.3604 183.935 24.0236 183.935 26.6724C183.935 29.3211 181.963 30.9843 178.822 30.9843C175.619 30.9843 173.648 29.3211 173.648 26.6724C173.648 24.0236 175.619 22.3604 178.822 22.3604Z" fill="white"/>
</svg>
