<svg width="361" height="82" viewBox="0 0 361 82" fill="none" xmlns="http://www.w3.org/2000/svg">
<path d="M218.938 19.0001H224.356L220.66 40.0001H190.63L194.326 19.0001H199.744L196.93 34.9181H203.818L206.632 19.0001H212.05L209.236 34.9181H216.124L218.938 19.0001ZM242.794 19.0001H248.8L237.46 40.0001C235.752 43.1921 233.876 45.4181 231.832 46.6781C229.816 47.9661 227.492 48.5401 224.86 48.4001L225.742 43.3601C227.226 43.3881 228.402 43.1081 229.27 42.5201C230.138 41.9601 230.95 40.9381 231.706 39.4541L231.832 39.2441L226.96 19.0001H232.504L235.612 33.1541L242.794 19.0001ZM273.219 19.0001L269.523 40.0001H264.273L266.457 27.6941L259.569 36.1361H258.939L255.075 27.6521L252.891 40.0001H247.683L251.379 19.0001H256.671L260.367 27.9881L267.507 19.0001H273.219ZM282.614 34.2041L277.406 45.8801H272.996L276.734 34.2041H282.614Z" fill="black"/>
<path d="M14.664 72.5521C14.472 73.6721 13.944 74.4721 13.08 74.9521C14.088 75.6081 14.48 76.5441 14.256 77.7601C14.064 78.7841 13.584 79.5841 12.816 80.1601C12.048 80.7201 11 81.0001 9.672 81.0001H3.36L5.472 69.0001H11.304C12.456 69.0001 13.344 69.3441 13.968 70.0321C14.608 70.7201 14.84 71.5601 14.664 72.5521ZM10.56 71.5441H7.92L7.56 73.7041H10.152C11.064 73.7041 11.576 73.3441 11.688 72.6241C11.752 72.2721 11.688 72.0081 11.496 71.8321C11.304 71.6401 10.992 71.5441 10.56 71.5441ZM11.304 77.2321C11.368 76.8961 11.296 76.6321 11.088 76.4401C10.88 76.2481 10.568 76.1521 10.152 76.1521H7.128L6.72 78.3841H9.768C10.168 78.3841 10.504 78.2881 10.776 78.0961C11.064 77.8881 11.24 77.6001 11.304 77.2321ZM28.4578 69.0001L22.6738 74.9281L26.4898 81.0001H23.1298L19.6978 75.3601L18.7138 81.0001H15.6178L17.7298 69.0001H20.8258L19.9378 74.0641L24.7858 69.0001H28.4578ZM40.4243 69.0001L38.3123 81.0001H35.2163L36.8003 71.9761H33.4883L32.7923 75.9841C32.4403 77.9681 31.7763 79.3521 30.8003 80.1361C29.8243 80.9041 28.5123 81.1921 26.8643 81.0001L27.3442 78.0961C28.6082 78.3521 29.4003 77.5921 29.7203 75.8161L30.9203 69.0001H40.4243ZM54.1258 68.6641C55.9658 68.6641 57.3818 69.3361 58.3738 70.6801C59.3658 72.0081 59.7018 73.5521 59.3818 75.3121C59.0938 77.0081 58.2778 78.4401 56.9338 79.6081C55.5898 80.7601 54.0538 81.3361 52.3258 81.3361C50.7098 81.3361 49.4138 80.8801 48.4378 79.9681C47.4618 79.0401 46.9178 77.8641 46.8058 76.4401H45.0058L44.2138 81.0001H41.1178L43.2298 69.0001H46.3258L45.5338 73.5361H47.2138C47.7258 72.0961 48.5978 70.9281 49.8298 70.0321C51.0618 69.1201 52.4938 68.6641 54.1258 68.6641ZM56.3578 74.9761C56.5338 73.9841 56.3578 73.1921 55.8298 72.6001C55.3178 71.9921 54.6058 71.6881 53.6938 71.6881C52.7818 71.6881 51.9658 71.9921 51.2458 72.6001C50.5258 73.1921 50.0698 73.9921 49.8778 75.0001C49.7178 76.0081 49.8938 76.8161 50.4058 77.4241C50.9178 78.0161 51.6218 78.3121 52.5178 78.3121C53.4298 78.3121 54.2538 78.0081 54.9898 77.4001C55.7258 76.7921 56.1818 75.9841 56.3578 74.9761ZM69.5051 69.0001H72.6011L70.4891 81.0001H67.3931L68.0651 77.2321C67.0411 77.4881 66.1051 77.6161 65.2571 77.6161C63.8011 77.6161 62.6811 77.2241 61.8971 76.4401C61.1291 75.6561 60.8651 74.6081 61.1051 73.2961L61.8491 69.0001H64.9451L64.2491 72.9361C64.1531 73.5121 64.2571 73.9601 64.5611 74.2801C64.8811 74.5841 65.3931 74.7361 66.0971 74.7361C66.8331 74.7361 67.6651 74.5761 68.5931 74.2561L69.5051 69.0001ZM84.0735 69.0001H86.3775L84.2655 81.0001H81.2415L82.4175 74.3281L75.6015 81.0001H73.2975L75.4095 69.0001H78.4335L77.2575 75.6721L84.0735 69.0001ZM97.9742 70.9201C98.8382 69.4481 100.182 68.7281 102.006 68.7601L101.406 72.2161C100.846 72.1521 100.294 72.1921 99.7502 72.3361C99.2222 72.4641 98.7102 72.7681 98.2142 73.2481C97.7182 73.7281 97.3902 74.3601 97.2302 75.1441L96.1982 81.0001H93.1022L95.2142 69.0001H98.3102L97.9742 70.9201ZM104.233 70.4161C105.593 69.2481 107.161 68.6641 108.937 68.6641C110.713 68.6641 112.113 69.2801 113.137 70.5121C114.161 71.7281 114.505 73.2241 114.169 75.0001C114.137 75.3521 114.025 75.7761 113.833 76.2721H104.761C104.825 77.0401 105.121 77.6081 105.649 77.9761C106.177 78.3441 106.841 78.5281 107.641 78.5281C108.841 78.5281 109.825 78.1201 110.593 77.3041L112.777 79.0561C111.433 80.5761 109.641 81.3361 107.401 81.3361C105.417 81.3361 103.905 80.7041 102.865 79.4401C101.841 78.1761 101.481 76.6161 101.785 74.7601C102.057 73.0161 102.873 71.5681 104.233 70.4161ZM105.193 73.8481H111.289C111.273 73.0321 111.025 72.4321 110.545 72.0481C110.081 71.6481 109.481 71.4481 108.745 71.4481C107.945 71.4481 107.233 71.6561 106.609 72.0721C106.001 72.4881 105.529 73.0801 105.193 73.8481ZM126.436 69.0001H129.532L127.42 81.0001H124.324L124.516 79.8961C123.476 80.8561 122.148 81.3361 120.532 81.3361C118.724 81.3361 117.38 80.6721 116.5 79.3441C115.62 78.0161 115.348 76.4721 115.684 74.7121C115.988 73.0001 116.756 71.5681 117.988 70.4161C119.236 69.2481 120.724 68.6641 122.452 68.6641C124.148 68.6641 125.38 69.3121 126.148 70.6081L126.436 69.0001ZM121.492 78.3841C122.42 78.3841 123.244 78.0961 123.964 77.5201C124.684 76.9281 125.148 76.1521 125.356 75.1921L125.404 74.8081C125.532 73.8321 125.324 73.0561 124.78 72.4801C124.252 71.9041 123.532 71.6161 122.62 71.6161C121.676 71.6161 120.844 71.9201 120.124 72.5281C119.404 73.1201 118.956 73.9361 118.78 74.9761C118.604 75.9841 118.772 76.8081 119.284 77.4481C119.796 78.0721 120.532 78.3841 121.492 78.3841ZM130.275 81.0001L131.595 73.4641L133.347 63.4801H136.443L134.667 73.5841L133.371 81.0001H130.275ZM151.54 68.6641C152.9 68.6641 153.932 69.1201 154.636 70.0321C155.356 70.9441 155.588 72.1361 155.332 73.6081L154.012 81.0001H150.916L152.164 73.8241C152.292 73.1041 152.212 72.5441 151.924 72.1441C151.652 71.7441 151.196 71.5441 150.556 71.5441C149.212 71.5441 148.332 72.3041 147.916 73.8241L146.668 81.0001H143.572L144.82 73.8241C144.948 73.1041 144.868 72.5441 144.58 72.1441C144.308 71.7441 143.86 71.5441 143.236 71.5441C142.532 71.5441 141.932 71.7681 141.436 72.2161C140.956 72.6641 140.644 73.3201 140.5 74.1841L139.3 81.0001H136.204L138.316 69.0001H141.412L141.196 70.2001C142.124 69.1761 143.284 68.6641 144.676 68.6641C146.148 68.6641 147.164 69.2641 147.724 70.4641C148.7 69.2641 149.972 68.6641 151.54 68.6641ZM159.522 70.4161C160.882 69.2481 162.45 68.6641 164.226 68.6641C166.002 68.6641 167.402 69.2801 168.426 70.5121C169.45 71.7281 169.794 73.2241 169.458 75.0001C169.426 75.3521 169.314 75.7761 169.122 76.2721H160.05C160.114 77.0401 160.41 77.6081 160.938 77.9761C161.466 78.3441 162.13 78.5281 162.93 78.5281C164.13 78.5281 165.114 78.1201 165.882 77.3041L168.066 79.0561C166.722 80.5761 164.93 81.3361 162.69 81.3361C160.706 81.3361 159.194 80.7041 158.154 79.4401C157.13 78.1761 156.77 76.6161 157.074 74.7601C157.346 73.0161 158.162 71.5681 159.522 70.4161ZM160.482 73.8481H166.578C166.562 73.0321 166.314 72.4321 165.834 72.0481C165.37 71.6481 164.77 71.4481 164.034 71.4481C163.234 71.4481 162.522 71.6561 161.898 72.0721C161.29 72.4881 160.818 73.0801 160.482 73.8481Z" fill="black"/>
<g clip-path="url(#clip0)">
<path d="M1.89412 25.8035L0 31.3495H178.047L180 25.8035H1.89412Z" fill="#FFC915"/>
<path d="M167.19 42.538H172.775L174.474 33.2753H168.909L167.19 42.538Z" fill="black"/>
<path d="M59.2651 15.4623H53.6803L52.1377 23.8777H57.6834L59.2651 15.4623Z" fill="black"/>
<path d="M104.763 15.4623H99.1784L97.6357 23.8777H103.22L104.763 15.4623Z" fill="black"/>
<path d="M75.57 33.3138C74.8475 37.2037 73.2073 37.9355 70.7273 37.6274L69.8291 42.5958C74.2227 43.0002 79.495 42.0758 81.1548 33.2753H75.57V33.3138Z" fill="black"/>
<path d="M44.0336 20.5654H50.3017L51.239 15.4623H33.118L32.1807 20.5654H38.4488L37.8435 23.8777H43.4282L44.0336 20.5654Z" fill="black"/>
<path d="M73.4021 15.4623H66.8215L58.6982 23.8777H65.2398L73.4021 15.4623Z" fill="black"/>
<path d="M82.775 20.5654H88.4964L87.8716 23.8777H93.4563L94.9989 15.4623H78.1471L76.585 23.8777H82.1697L82.775 20.5654Z" fill="black"/>
<path d="M85.1377 42.538H90.7224L92.4213 33.2753H86.8561L85.1377 42.538Z" fill="black"/>
<path d="M17.1645 37.8391C14.0012 37.8391 11.8532 36.0867 11.5017 33.2944H5.81934C6.05366 38.8405 10.4472 43.0193 16.5787 43.0193C23.4327 43.0193 28.8026 39.0523 30.7553 33.2944H24.8777C23.3741 36.0867 20.3279 37.8391 17.1645 37.8391Z" fill="black"/>
<path d="M49.4033 42.538H54.9685L56.6674 33.2753H51.1022L49.4033 42.538Z" fill="black"/>
<path d="M63.365 42.538H69.1255L63.7946 33.2753H58.0146L63.365 42.538Z" fill="black"/>
<path d="M35.1094 42.538H40.6941L42.393 33.2753H36.8278L35.1094 42.538Z" fill="black"/>
<path d="M153.619 42.538H157.798L166.624 33.2753H155.318L153.619 42.538Z" fill="black"/>
<path d="M19.9171 20.1803C22.7485 20.1803 24.8769 21.5861 25.5799 23.8777H31.3794C30.7351 18.7553 26.4391 15.0001 20.7567 15.0001C14.2347 15.0001 9.02101 18.582 6.85352 23.8777H12.8874C14.4495 21.5668 17.0857 20.1803 19.9171 20.1803Z" fill="black"/>
<path d="M94.9014 42.538H100.467L102.185 33.2753H96.6002L94.9014 42.538Z" fill="black"/>
<path d="M141.864 35.1817C142.977 35.1817 144.129 35.0854 145.281 34.8158L143.856 42.538H149.421L151.139 33.2753H135.4C136.845 34.527 139.091 35.1817 141.864 35.1817Z" fill="black"/>
<path d="M116.674 37.8391C113.511 37.8391 111.363 36.0867 111.012 33.2944H105.505C105.7 38.8405 109.977 43.0193 116.089 43.0193C122.63 43.0193 128.234 39.0523 130.246 33.2944H124.388C122.884 36.0867 119.838 37.8391 116.674 37.8391Z" fill="black"/>
<path d="M139.423 22.9726L140.809 15.4816H135.244L133.701 23.7814C133.701 23.8199 133.682 23.8585 133.682 23.897H139.325C139.344 23.6081 139.364 23.3 139.423 22.9726Z" fill="black"/>
<path d="M153.716 15.4623H148.131L146.589 23.8777H152.154L153.716 15.4623Z" fill="black"/>
<path d="M177.052 15.4623H172.873L164.848 23.8777H175.509L177.052 15.4623Z" fill="black"/>
<path d="M119.427 20.1803C122.258 20.1803 124.387 21.5861 125.09 23.8777H130.889C130.225 18.7553 125.949 15.0001 120.267 15.0001C114.037 15.0001 108.726 18.582 106.559 23.8777H112.397C113.959 21.5668 116.595 20.1803 119.427 20.1803Z" fill="black"/>
<path d="M163.46 15.4623H157.895L156.333 23.8777H161.918L163.46 15.4623Z" fill="black"/>
<path d="M164.847 25.8035H161.918L161.215 29.6357L164.847 25.8035Z" fill="#FFC915"/>
<path d="M31.3797 25.8035C31.5164 26.9204 31.4969 28.1143 31.2821 29.3275C31.1454 30.0208 30.9697 30.6948 30.7549 31.3495H36.8278L37.8432 25.8035H31.3797V25.8035Z" fill="#FFC915"/>
<path d="M166.624 31.3495H168.909L169.455 28.3646L166.624 31.3495Z" fill="#FFC915"/>
<path d="M106.442 26.1116C106.481 26.0153 106.52 25.8998 106.559 25.8035H103.22L103.161 26.1116H106.442Z" fill="#FFC915"/>
<path d="M102.224 31.234L102.204 31.3688H105.504C105.504 31.3303 105.504 31.2918 105.504 31.234H102.224Z" fill="#FFC915"/>
<path d="M11.5993 29.0002C11.4431 29.8475 11.4235 30.637 11.5017 31.3495H24.8777C25.2682 30.637 25.5416 29.8475 25.6978 29.0002C25.9126 27.8062 25.854 26.7278 25.5806 25.8035H12.8881C12.2632 26.7278 11.8141 27.8062 11.5993 29.0002Z" fill="#FFC915"/>
<path d="M6.01432 28.6728C6.19006 27.6714 6.48297 26.7086 6.85398 25.8035H1.89412L0 31.3495H5.81905C5.78 30.483 5.83858 29.5971 6.01432 28.6728Z" fill="#FFC915"/>
<path d="M133.701 25.8035H130.909C131.046 26.9204 131.026 28.1143 130.811 29.3275C130.675 30.0208 130.499 30.6948 130.265 31.3495H135.42C133.936 30.0978 133.272 28.2299 133.701 25.8035Z" fill="#FFC915"/>
<path d="M152.155 25.8035L151.14 31.3495H155.318L156.334 25.8035H152.155Z" fill="#FFC915"/>
<path d="M93.4558 25.8035L92.4209 31.3495H96.5997L97.6346 25.8035H93.4558Z" fill="#FFC915"/>
<path d="M82.1697 25.8035L81.1738 31.1955C81.1543 31.2533 81.1543 31.311 81.1348 31.3495H86.8562L87.8716 25.8035H82.1697V25.8035Z" fill="#FFC915"/>
<path d="M65.2396 25.8035L62.3301 28.8076L63.7946 31.3495H75.5694L76.5848 25.8035H65.2396Z" fill="#FFC915"/>
<path d="M180 25.8035H175.509L174.474 31.3495H178.047L180 25.8035Z" fill="#FFC915"/>
<path d="M111.109 29.0002C110.953 29.8475 110.933 30.637 111.011 31.3495H124.387C124.778 30.637 125.051 29.8475 125.208 29.0002C125.422 27.8062 125.364 26.7278 125.09 25.8035H112.398C111.773 26.7278 111.324 27.8062 111.109 29.0002Z" fill="#FFC915"/>
<path d="M56.667 31.3495H58.0144L56.9989 29.5779L56.667 31.3495Z" fill="#FFC915"/>
<path d="M43.4285 25.8035L42.3936 31.3495H51.1026L52.1375 25.8035H43.4285Z" fill="#FFC915"/>
<path d="M142.567 28.1336C143.934 28.1336 145.183 27.9025 146.257 27.5366L146.589 25.8035H139.345C139.306 27.5751 140.399 28.1336 142.567 28.1336Z" fill="#FFC915"/>
<path d="M58.698 25.8035H57.6826L57.4482 27.113L58.698 25.8035Z" fill="#FFC915"/>
<path d="M146.589 25.8035L146.257 27.5366C145.183 27.9025 143.914 28.1336 142.567 28.1336C140.399 28.1336 139.306 27.5559 139.325 25.8035H133.682C133.272 28.2299 133.916 30.0978 135.4 31.3495H151.139L152.154 25.8035H146.589V25.8035Z" fill="#FFC915"/>
<path d="M164.847 25.8035L161.215 29.6357L161.918 25.8035H156.333L155.317 31.3495H166.624L169.455 28.3647L168.908 31.3495H174.473L175.508 25.8035H164.847Z" fill="#FFC915"/>
<path d="M65.2401 25.8035H58.6985L57.4488 27.113L57.6831 25.8035H52.1375L51.1025 31.3495H56.6677L56.9997 29.5779L58.0151 31.3495H63.7951L62.3306 28.8076L65.2401 25.8035Z" fill="#FFC915"/>
<path d="M82.1695 25.8035H76.6043L75.5693 31.3495H81.1345C81.1541 31.2918 81.1541 31.234 81.1736 31.1955L82.1695 25.8035Z" fill="#FFC915"/>
<path d="M130.889 25.8035H125.09C125.383 26.7278 125.441 27.8062 125.207 29.0002C125.051 29.8475 124.758 30.637 124.387 31.3495H130.245C130.479 30.6948 130.655 30.0208 130.792 29.3275C131.006 28.1143 131.045 26.9204 130.889 25.8035Z" fill="#FFC915"/>
<path d="M87.8719 25.8035L86.8564 31.3495H92.4216L93.4566 25.8035H87.8719Z" fill="#FFC915"/>
<path d="M37.8435 25.8035L36.8281 31.3495H42.3933L43.4283 25.8035H37.8435Z" fill="#FFC915"/>
<path d="M31.3794 25.8035H25.5799C25.8728 26.7278 25.9314 27.8062 25.6971 29.0002C25.5409 29.8475 25.248 30.637 24.877 31.3495H30.7546C30.9694 30.6948 31.1646 30.0208 31.2818 29.3275C31.4966 28.1143 31.5357 26.9204 31.3794 25.8035Z" fill="#FFC915"/>
<path d="M111.108 29.0002C111.323 27.8062 111.792 26.7278 112.416 25.8035H106.578C106.539 25.8998 106.5 26.0153 106.461 26.1116H103.18L103.239 25.8035H97.6345L96.6191 31.3495H102.204L102.223 31.2147H105.504C105.504 31.2533 105.504 31.2918 105.504 31.3495H111.011C110.913 30.637 110.952 29.8475 111.108 29.0002Z" fill="#FFC915"/>
<path d="M11.5992 29.0002C11.814 27.8062 12.2826 26.7278 12.9075 25.8035H6.85411C6.4831 26.7086 6.19019 27.6714 6.01445 28.6728C5.83871 29.5971 5.78013 30.483 5.81918 31.3495H11.5015C11.4039 30.637 11.443 29.8475 11.5992 29.0002Z" fill="#FFC915"/>
</g>
<defs>
<clipPath id="clip0">
<rect width="180" height="28" fill="white" transform="translate(0 15.0001)"/>
</clipPath>
</defs>
</svg>
