<svg width="233" height="23" viewBox="0 0 233 23" fill="none" xmlns="http://www.w3.org/2000/svg">
<path fill-rule="evenodd" clip-rule="evenodd" d="M115.775 16.6774C115.775 14.8542 114.327 13.4063 112.45 13.4063H106.23V20.0021H112.45C114.327 20.0021 115.775 18.5543 115.775 16.6774ZM106.283 4.6656V10.886H111.86C113.576 10.886 114.97 9.49178 114.97 7.7758C114.97 6.05983 113.63 4.6656 111.86 4.6656H106.283ZM118.51 16.7847C118.51 20.0557 115.828 22.5224 112.45 22.5224H103.495V2.14526H111.807C115.024 2.14526 117.652 4.55835 117.652 7.72218C117.652 9.5454 116.74 11.0469 115.399 11.9585C117.276 12.8165 118.51 14.5324 118.51 16.7847Z" fill="black"/>
<path fill-rule="evenodd" clip-rule="evenodd" d="M134.06 6.43481V22.0931H131.325V19.8409C130.146 21.7177 128.43 22.5221 126.231 22.5221C122.531 22.5221 120.118 20.0554 120.118 16.0872V6.43481H122.853V15.9263C122.853 18.5003 124.354 19.9481 126.767 19.9481C129.288 19.9481 131.325 18.4466 131.325 14.7466V6.43481H134.06Z" fill="black"/>
<path fill-rule="evenodd" clip-rule="evenodd" d="M150.094 14.2104C150.094 10.993 147.681 8.57987 144.517 8.57987C141.353 8.57987 138.94 10.993 138.94 14.2104C138.94 17.4279 141.353 19.8409 144.517 19.8409C147.681 19.8409 150.094 17.4279 150.094 14.2104ZM152.829 0V22.0932H150.094V19.3583C148.86 21.2888 146.823 22.4685 144.141 22.4685C139.798 22.4685 136.205 18.8221 136.205 14.1568C136.205 9.49148 139.798 5.84503 144.141 5.84503C146.823 5.84503 148.807 7.02477 150.094 8.95523V0H152.829Z" fill="black"/>
<path fill-rule="evenodd" clip-rule="evenodd" d="M166.771 17.803C166.771 20.7523 164.197 22.5219 160.819 22.5219C157.601 22.5219 155.403 21.0205 154.438 18.8219L156.851 17.4813C157.387 18.9827 158.835 19.948 160.819 19.948C162.535 19.948 163.983 19.3581 163.983 17.803C163.983 14.4247 155.027 16.3551 155.027 10.6174C155.027 7.82891 157.44 5.89844 160.658 5.89844C163.286 5.89844 165.377 7.13179 166.396 9.16951L164.036 10.4565C163.446 9.00864 161.999 8.41877 160.604 8.41877C159.156 8.41877 157.762 9.11589 157.762 10.5101C157.816 13.9421 166.771 11.958 166.771 17.803Z" fill="black"/>
<path fill-rule="evenodd" clip-rule="evenodd" d="M187.041 15.4441L183.395 5.36271L179.748 15.3904H187.041V15.4441ZM187.953 17.9644H178.783L177.121 22.5224H174.279L181.893 2.14526H184.95L192.511 22.5224H189.615L187.953 17.9644Z" fill="black"/>
<path fill-rule="evenodd" clip-rule="evenodd" d="M193.529 22.5222H196.318V6.59577H193.529V22.5222ZM193.047 1.87685C193.047 0.857987 193.905 0 194.924 0C195.942 0 196.8 0.857987 196.8 1.87685C196.8 2.8957 195.942 3.70007 194.924 3.70007C193.905 3.70007 193.047 2.8957 193.047 1.87685Z" fill="black"/>
<path fill-rule="evenodd" clip-rule="evenodd" d="M206.99 6.43481V9.33052C204.684 9.22327 202.163 10.4566 202.163 14.1567V22.5221H199.482V6.70294H202.163V9.38414C203.182 7.18555 205.059 6.43481 206.99 6.43481Z" fill="black"/>
<path fill-rule="evenodd" clip-rule="evenodd" d="M54.5359 12.3335C54.5359 10.1885 56.52 8.79428 58.3432 8.79428C60.5955 8.79428 61.9361 10.3494 61.9361 12.9233V22.5221H64.4564V12.6016C64.4564 10.7784 65.4753 8.79428 68.3173 8.79428C70.5159 8.79428 71.9638 10.403 71.9638 12.9233V22.5221H74.4841V12.9233C74.4841 8.95515 72.2319 6.43481 68.6391 6.43481C66.4941 6.43481 64.6709 7.34643 63.4912 8.95515C62.7404 7.72179 61.3462 6.43481 58.7722 6.43481C57.0563 6.43481 55.5548 7.0783 54.4823 8.20441V6.64931H52.0156V22.5221H54.5359V12.3335Z" fill="black"/>
<path fill-rule="evenodd" clip-rule="evenodd" d="M12.8699 12.8698C13.4598 10.4567 15.6584 8.79431 18.1787 8.79431C20.6991 8.79431 22.6832 10.403 23.1121 12.8698H12.8699ZM25.7397 14.264C25.7397 11.9045 24.989 9.92042 23.5411 8.47257C22.2005 7.13196 20.3237 6.38123 18.286 6.38123C13.567 6.43485 10.1887 9.81317 10.1887 14.4785C10.1887 19.1974 13.4598 22.5221 18.1787 22.5221C21.2889 22.5221 23.7556 21.2351 25.2035 18.7148L25.3107 18.5003L23.1658 17.1597L23.0585 17.3742C21.8788 19.3047 20.3773 20.1626 18.2323 20.1626C15.2294 20.1626 12.9236 17.964 12.7627 15.0683H25.7397V14.264Z" fill="black"/>
<path fill-rule="evenodd" clip-rule="evenodd" d="M2.52034 8.74065H9.65235V6.43481H0V21.9858H2.52034V8.74065Z" fill="black"/>
<path fill-rule="evenodd" clip-rule="evenodd" d="M78.8275 12.8698C79.4174 10.4567 81.616 8.79431 84.1363 8.79431C86.6567 8.79431 88.6408 10.403 89.0698 12.8698H78.8275ZM84.1363 22.5221C87.2465 22.5221 89.7132 21.2351 91.1611 18.7148L91.2683 18.5003L89.0698 17.1597L88.9089 17.3742C87.7292 19.3047 86.2277 20.1626 84.0827 20.1626C81.0798 20.1626 78.7739 17.964 78.613 15.0683H91.6973V14.264C91.6973 11.9045 90.9466 9.92042 89.4987 8.47257C88.1581 7.13196 86.2813 6.38123 84.2436 6.38123C79.5783 6.38123 76.1463 9.75955 76.1463 14.4249C76.1463 19.1974 79.4174 22.5221 84.1363 22.5221Z" fill="black"/>
<path fill-rule="evenodd" clip-rule="evenodd" d="M46.1166 22.5224H48.7978V2.14526H46.1166V22.5224Z" fill="black"/>
<path fill-rule="evenodd" clip-rule="evenodd" d="M29.8688 14.4784C29.8688 11.3146 32.2283 8.90149 35.2848 8.90149C38.5023 8.90149 40.6472 11.1537 40.6472 14.4784C40.6472 17.8031 38.5023 20.0017 35.2848 20.0017C32.2283 20.0553 29.8688 17.6422 29.8688 14.4784ZM35.4457 22.522C37.3225 22.522 39.0921 21.9322 40.3791 20.8597V22.3075H42.8995V6.7029H40.3791V8.15075C39.0385 7.07827 37.2689 6.4884 35.4457 6.4884C33.1935 6.4884 31.1021 7.29277 29.6007 8.79424C28.1528 10.2421 27.3484 12.2798 27.3484 14.4784C27.3484 16.677 28.1528 18.7147 29.6007 20.2162C31.1021 21.7177 33.1935 22.522 35.4457 22.522Z" fill="black"/>
<path d="M219.132 20.169L225.92 13.1839C227.304 11.8001 228.424 10.3504 228.424 8.90064C228.424 6.92373 227.106 5.86938 225.393 5.86938C223.745 5.86938 222.493 6.72604 221.768 8.30756L219.066 6.72604C220.318 4.02426 222.757 2.77222 225.393 2.77222C228.621 2.77222 231.653 4.94682 231.653 8.83474C231.653 11.2729 230.203 13.3157 228.358 15.2267L223.943 19.6418H232.048V22.739H219.132V20.169Z" fill="black"/>
</svg>
