<svg width="221" height="32" viewBox="0 0 221 32" fill="none" xmlns="http://www.w3.org/2000/svg">
<path d="M83.5 15.7999C83.5 12.5999 86.5 10.3999 89.3 10.3999C92.7 10.3999 94.8 12.7999 94.8 16.5999V31.1999H98.6V16.1999C98.6 13.3999 100.1 10.3999 104.5 10.3999C107.9 10.3999 110 12.7999 110 16.5999V31.1999H113.8V16.5999C113.8 10.4999 110.4 6.79988 104.9 6.79988C101.7 6.79988 98.9 8.19988 97.1 10.5999C96 8.69988 93.8 6.79988 89.9 6.79988C87.3 6.79988 85 7.69988 83.4 9.49988V7.09988H79.6V31.1999H83.4V15.7999H83.5ZM39.6 18.7999C39.6 15.1999 38.4 12.0999 36.3 9.89988C34.3 7.79988 31.5 6.69988 28.4 6.69988C21.4 6.69988 16.3 11.8999 16.3 19.0999C16.3 26.3999 21.2 31.4999 28.3 31.4999C33 31.4999 36.6 29.4999 38.9 25.5999L39.1 25.2999L35.8 23.1999L35.6 23.5999C33.9 26.5999 31.6 27.8999 28.3 27.8999C23.8 27.8999 20.4 24.4999 20.1 19.9999H39.6V18.7999ZM20.3 16.5999C21.2 12.8999 24.4 10.2999 28.3 10.2999C32.1 10.2999 35.1 12.7999 35.7 16.5999H20.3ZM3.8 10.6999H14.8V7.09988H0V31.1999H3.8V10.6999ZM129.1 31.4999C133.8 31.4999 137.4 29.4999 139.7 25.5999L139.9 25.2999L136.6 23.1999L136.4 23.5999C134.7 26.5999 132.4 27.8999 129.1 27.8999C124.6 27.8999 121.2 24.4999 120.9 19.9999H140.4V18.7999C140.4 15.1999 139.2 12.0999 137.1 9.89988C135.1 7.79988 132.3 6.69988 129.2 6.69988C122.2 6.69988 117.1 11.8999 117.1 19.0999C117 26.3999 122 31.4999 129.1 31.4999ZM121.1 16.5999C122 12.8999 125.2 10.2999 129.1 10.2999C132.9 10.2999 135.9 12.7999 136.5 16.5999H121.1ZM74.6 -0.00012207H70.8V31.1999H74.6V-0.00012207ZM54.6 31.5999C57.4 31.5999 60.1 30.6999 62 28.9999V31.1999H65.8V7.19988H62V9.39988C60 7.69988 57.3 6.79988 54.6 6.79988C51.2 6.79988 48.1 8.09988 45.8 10.3999C43.6 12.6999 42.4 15.7999 42.4 19.2999C42.4 22.6999 43.6 25.8999 45.8 28.0999C48.1 30.3999 51.2 31.5999 54.6 31.5999ZM46.2 19.1999C46.2 14.2999 49.7 10.5999 54.4 10.5999C59.2 10.5999 62.5 14.0999 62.5 19.1999C62.5 24.2999 59.2 27.7999 54.4 27.7999C49.7 27.7999 46.2 24.0999 46.2 19.1999Z" fill="white"/>
<path d="M165.4 31.7998C170.6 31.7998 173.8 29.0998 173.8 24.6998C173.8 22.0998 172.7 20.0998 170.5 18.8998L170.3 18.7998L170.5 18.6998C172.1 17.5998 173 15.8998 173 13.6998C173 8.9998 169.2 6.7998 165.4 6.7998C161.6 6.7998 157.8 8.8998 157.8 13.6998C157.8 15.9998 158.6 17.6998 160.2 18.6998L160.4 18.7998L160.2 18.8998C158.1 20.0998 157 22.0998 157 24.6998C157 28.9998 160.3 31.7998 165.4 31.7998ZM165.4 10.2998C167.7 10.2998 169.3 11.6998 169.3 13.7998C169.3 15.7998 167.9 16.9998 165.4 16.9998C163 16.9998 161.5 15.7998 161.5 13.7998C161.6 11.6998 163.1 10.2998 165.4 10.2998ZM165.4 20.3998C168.3 20.3998 170.1 21.8998 170.1 24.2998C170.1 26.6998 168.3 28.1998 165.4 28.1998C162.5 28.1998 160.7 26.6998 160.7 24.2998C160.7 21.8998 162.5 20.3998 165.4 20.3998Z" fill="white"/>
<path d="M197.5 17.1998C197.5 19.4998 195.7 21.2998 193.4 21.2998H190.8V25.5998H188.7V13.0998H193.3C195.7 13.0998 197.5 14.7998 197.5 17.1998ZM195.5 17.1998C195.5 15.8998 194.6 14.9998 193.4 14.9998H190.8V19.3998H193.4C194.6 19.2998 195.5 18.3998 195.5 17.1998ZM203.7 16.4998V18.5998C202.4 18.4998 200.9 19.0998 200.9 21.0998V25.5998H199V16.6998H200.9V18.1998C201.5 16.8998 202.5 16.4998 203.7 16.4998ZM204.2 21.0998C204.2 18.3998 206.3 16.3998 208.9 16.3998C211.5 16.3998 213.6 18.3998 213.6 21.0998C213.6 23.6998 211.5 25.7998 208.9 25.7998C206.3 25.7998 204.2 23.6998 204.2 21.0998ZM211.7 21.0998C211.7 19.4998 210.5 18.2998 208.9 18.2998C207.3 18.2998 206.1 19.4998 206.1 21.0998C206.1 22.6998 207.3 23.8998 208.9 23.8998C210.5 23.8998 211.7 22.6998 211.7 21.0998ZM215.7 9.1998C217.3 9.1998 218.5 10.4998 218.5 11.9998V26.6998C218.5 28.2998 217.2 29.4998 215.7 29.4998H185.8C184.2 29.4998 183 28.1998 183 26.6998V12.0998C183 10.4998 184.3 9.2998 185.8 9.2998H215.7V9.1998ZM215.7 7.2998H185.8C183.2 7.2998 181.1 9.3998 181.1 11.9998V26.6998C181.1 29.2998 183.2 31.3998 185.8 31.3998H215.7C218.3 31.3998 220.4 29.2998 220.4 26.6998V12.0998C220.4 9.4998 218.3 7.2998 215.7 7.2998Z" fill="white"/>
</svg>
