<svg width="452" height="109" viewBox="0 0 452 109" fill="none" xmlns="http://www.w3.org/2000/svg">
<path d="M352.718 28H360.716L355.26 59H310.93L316.386 28H324.384L320.23 51.498H330.398L334.552 28H342.55L338.396 51.498H348.564L352.718 28ZM387.934 28H396.8L380.06 59C377.539 63.712 374.77 66.998 371.752 68.858C368.776 70.7593 365.346 71.6067 361.46 71.4L362.762 63.96C364.953 64.0013 366.689 63.588 367.97 62.72C369.252 61.8933 370.45 60.3847 371.566 58.194L371.752 57.884L364.56 28H372.744L377.332 48.894L387.934 28ZM432.847 28L427.391 59H419.641L422.865 40.834L412.697 53.296H411.767L406.063 40.772L402.839 59H395.151L400.607 28H408.419L413.875 41.268L424.415 28H432.847ZM446.716 50.444L439.028 67.68H432.518L438.036 50.444H446.716Z" fill="black"/>
<path d="M22.524 88.032C22.252 89.6187 21.504 90.752 20.28 91.432C21.708 92.3613 22.2633 93.6873 21.946 95.41C21.674 96.8607 20.994 97.994 19.906 98.81C18.818 99.6033 17.3333 100 15.452 100H6.51L9.502 83H17.764C19.396 83 20.654 83.4873 21.538 84.462C22.4447 85.4367 22.7733 86.6267 22.524 88.032ZM16.71 86.604H12.97L12.46 89.664H16.132C17.424 89.664 18.1493 89.154 18.308 88.134C18.3987 87.6353 18.308 87.2613 18.036 87.012C17.764 86.74 17.322 86.604 16.71 86.604ZM17.764 94.662C17.8547 94.186 17.7527 93.812 17.458 93.54C17.1633 93.268 16.7213 93.132 16.132 93.132H11.848L11.27 96.294H15.588C16.1547 96.294 16.6307 96.158 17.016 95.886C17.424 95.5913 17.6733 95.1833 17.764 94.662ZM42.0652 83L33.8712 91.398L39.2772 100H34.5172L29.6552 92.01L28.2612 100H23.8752L26.8672 83H31.2532L29.9952 90.174L36.8632 83H42.0652ZM59.0177 83L56.0257 100H51.6397L53.8837 87.216H49.1917L48.2057 92.894C47.707 95.7047 46.7664 97.6653 45.3837 98.776C44.001 99.864 42.1424 100.272 39.8077 100L40.4877 95.886C42.2784 96.2487 43.4004 95.172 43.8537 92.656L45.5537 83H59.0177ZM78.4282 82.524C81.0349 82.524 83.0409 83.476 84.4462 85.38C85.8516 87.2613 86.3276 89.4487 85.8742 91.942C85.4662 94.3447 84.3102 96.3733 82.4062 98.028C80.5022 99.66 78.3262 100.476 75.8782 100.476C73.5889 100.476 71.7529 99.83 70.3702 98.538C68.9876 97.2233 68.2169 95.5573 68.0582 93.54H65.5082L64.3862 100H60.0002L62.9922 83H67.3782L66.2562 89.426H68.6362C69.3616 87.386 70.5969 85.7313 72.3422 84.462C74.0876 83.17 76.1162 82.524 78.4282 82.524ZM81.5902 91.466C81.8396 90.0607 81.5902 88.9387 80.8422 88.1C80.1169 87.2387 79.1082 86.808 77.8162 86.808C76.5242 86.808 75.3682 87.2387 74.3482 88.1C73.3282 88.9387 72.6822 90.072 72.4102 91.5C72.1836 92.928 72.4329 94.0727 73.1582 94.934C73.8836 95.7727 74.8809 96.192 76.1502 96.192C77.4422 96.192 78.6096 95.7613 79.6522 94.9C80.6949 94.0387 81.3409 92.894 81.5902 91.466ZM100.216 83H104.602L101.61 100H97.2236L98.1756 94.662C96.7249 95.0247 95.3989 95.206 94.1976 95.206C92.1349 95.206 90.5483 94.6507 89.4376 93.54C88.3496 92.4293 87.9756 90.9447 88.3156 89.086L89.3696 83H93.7556L92.7696 88.576C92.6336 89.392 92.7809 90.0267 93.2116 90.48C93.6649 90.9107 94.3903 91.126 95.3876 91.126C96.4303 91.126 97.6089 90.8993 98.9236 90.446L100.216 83ZM120.854 83H124.118L121.126 100H116.842L118.508 90.548L108.852 100H105.588L108.58 83H112.864L111.198 92.452L120.854 83ZM140.547 85.72C141.771 83.6347 143.675 82.6147 146.259 82.66L145.409 87.556C144.615 87.4653 143.833 87.522 143.063 87.726C142.315 87.9073 141.589 88.338 140.887 89.018C140.184 89.698 139.719 90.5933 139.493 91.704L138.031 100H133.645L136.637 83H141.023L140.547 85.72ZM149.414 85.006C151.341 83.3513 153.562 82.524 156.078 82.524C158.594 82.524 160.577 83.3967 162.028 85.142C163.479 86.8647 163.966 88.984 163.49 91.5C163.445 91.9987 163.286 92.5993 163.014 93.302H150.162C150.253 94.39 150.672 95.1947 151.42 95.716C152.168 96.2373 153.109 96.498 154.242 96.498C155.942 96.498 157.336 95.92 158.424 94.764L161.518 97.246C159.614 99.3993 157.075 100.476 153.902 100.476C151.091 100.476 148.949 99.5807 147.476 97.79C146.025 95.9993 145.515 93.7893 145.946 91.16C146.331 88.6893 147.487 86.638 149.414 85.006ZM150.774 89.868H159.41C159.387 88.712 159.036 87.862 158.356 87.318C157.699 86.7513 156.849 86.468 155.806 86.468C154.673 86.468 153.664 86.7627 152.78 87.352C151.919 87.9413 151.25 88.78 150.774 89.868ZM180.867 83H185.253L182.261 100H177.875L178.147 98.436C176.674 99.796 174.793 100.476 172.503 100.476C169.942 100.476 168.038 99.5353 166.791 97.654C165.545 95.7727 165.159 93.5853 165.635 91.092C166.066 88.6667 167.154 86.638 168.899 85.006C170.667 83.3513 172.775 82.524 175.223 82.524C177.626 82.524 179.371 83.442 180.459 85.278L180.867 83ZM173.863 96.294C175.178 96.294 176.345 95.886 177.365 95.07C178.385 94.2313 179.043 93.132 179.337 91.772L179.405 91.228C179.587 89.8453 179.292 88.746 178.521 87.93C177.773 87.114 176.753 86.706 175.461 86.706C174.124 86.706 172.945 87.1367 171.925 87.998C170.905 88.8367 170.271 89.9927 170.021 91.466C169.772 92.894 170.01 94.0613 170.735 94.968C171.461 95.852 172.503 96.294 173.863 96.294ZM186.306 100L188.176 89.324L190.658 75.18H195.044L192.528 89.494L190.692 100H186.306ZM216.431 82.524C218.358 82.524 219.82 83.17 220.817 84.462C221.837 85.754 222.166 87.4427 221.803 89.528L219.933 100H215.547L217.315 89.834C217.497 88.814 217.383 88.0207 216.975 87.454C216.59 86.8873 215.944 86.604 215.037 86.604C213.133 86.604 211.887 87.6807 211.297 89.834L209.529 100H205.143L206.911 89.834C207.093 88.814 206.979 88.0207 206.571 87.454C206.186 86.8873 205.551 86.604 204.667 86.604C203.67 86.604 202.82 86.9213 202.117 87.556C201.437 88.1907 200.995 89.12 200.791 90.344L199.091 100H194.705L197.697 83H202.083L201.777 84.7C203.092 83.2493 204.735 82.524 206.707 82.524C208.793 82.524 210.232 83.374 211.025 85.074C212.408 83.374 214.21 82.524 216.431 82.524ZM227.74 85.006C229.667 83.3513 231.888 82.524 234.404 82.524C236.92 82.524 238.903 83.3967 240.354 85.142C241.805 86.8647 242.292 88.984 241.816 91.5C241.771 91.9987 241.612 92.5993 241.34 93.302H228.488C228.579 94.39 228.998 95.1947 229.746 95.716C230.494 96.2373 231.435 96.498 232.568 96.498C234.268 96.498 235.662 95.92 236.75 94.764L239.844 97.246C237.94 99.3993 235.401 100.476 232.228 100.476C229.417 100.476 227.275 99.5807 225.802 97.79C224.351 95.9993 223.841 93.7893 224.272 91.16C224.657 88.6893 225.813 86.638 227.74 85.006ZM229.1 89.868H237.736C237.713 88.712 237.362 87.862 236.682 87.318C236.025 86.7513 235.175 86.468 234.132 86.468C232.999 86.468 231.99 86.7627 231.106 87.352C230.245 87.9413 229.576 88.78 229.1 89.868Z" fill="black"/>
<g clip-path="url(#clip0)">
<path d="M3.08321 31.7482L0 40.8596H289.821L293 31.7482H3.08321Z" fill="#FFC915"/>
<path d="M272.149 59.2408H281.239L284.005 44.0234H274.946L272.149 59.2408Z" fill="black"/>
<path d="M96.4694 14.7593H87.3787L84.8676 28.5846H93.8948L96.4694 14.7593Z" fill="black"/>
<path d="M170.53 14.7593H161.439L158.928 28.5846H168.019L170.53 14.7593Z" fill="black"/>
<path d="M123.01 44.0867C121.834 50.4774 119.164 51.6796 115.128 51.1734L113.665 59.3357C120.817 60.0001 129.399 58.4815 132.101 44.0234H123.01V44.0867Z" fill="black"/>
<path d="M71.6766 23.143H81.8798L83.4055 14.7593H53.9085L52.3828 23.143H62.5859L61.6006 28.5846H70.6913L71.6766 23.143Z" fill="black"/>
<path d="M119.482 14.7593H108.77L95.5477 28.5846H106.196L119.482 14.7593Z" fill="black"/>
<path d="M134.739 23.143H144.053L143.035 28.5846H152.126L154.637 14.7593H127.206L124.663 28.5846H133.754L134.739 23.143Z" fill="black"/>
<path d="M138.585 59.2408H147.676L150.441 44.0234H141.383L138.585 59.2408Z" fill="black"/>
<path d="M27.9396 51.5214C22.7903 51.5214 19.2939 48.6424 18.7218 44.0551H9.47214C9.85357 53.1665 17.0053 60.0317 26.986 60.0317C38.1428 60.0317 46.8838 53.5145 50.0624 44.0551H40.4949C38.0474 48.6424 33.0889 51.5214 27.9396 51.5214Z" fill="black"/>
<path d="M80.4177 59.2408H89.4766L92.2419 44.0234H83.183L80.4177 59.2408Z" fill="black"/>
<path d="M103.144 59.2408H112.521L103.844 44.0234H94.4352L103.144 59.2408Z" fill="black"/>
<path d="M57.1506 59.2408H66.2413L69.0066 44.0234H59.9477L57.1506 59.2408Z" fill="black"/>
<path d="M250.058 59.2408H256.86L271.227 44.0234H252.823L250.058 59.2408Z" fill="black"/>
<path d="M32.4214 22.5103C37.0303 22.5103 40.4949 24.8198 41.6392 28.5846H51.0795C50.0306 20.1692 43.0378 14 33.7881 14C23.1717 14 14.685 19.8845 11.1568 28.5846H20.9785C23.5214 24.7882 27.8124 22.5103 32.4214 22.5103Z" fill="black"/>
<path d="M154.478 59.2408H163.537L166.334 44.0234H157.244L154.478 59.2408Z" fill="black"/>
<path d="M230.923 47.1555C232.734 47.1555 234.61 46.9973 236.485 46.5544L234.165 59.2408H243.224L246.021 44.0234H220.402C222.754 46.0798 226.409 47.1555 230.923 47.1555Z" fill="black"/>
<path d="M189.919 51.5214C184.77 51.5214 181.273 48.6424 180.701 44.0551H171.738C172.056 53.1665 179.017 60.0317 188.966 60.0317C199.614 60.0317 208.736 53.5145 212.01 44.0551H202.474C200.027 48.6424 195.068 51.5214 189.919 51.5214Z" fill="black"/>
<path d="M226.949 27.0976L229.206 14.7909H220.147L217.636 28.4264C217.636 28.4897 217.604 28.5529 217.604 28.6162H226.791C226.822 28.1416 226.854 27.6355 226.949 27.0976Z" fill="black"/>
<path d="M250.217 14.7593H241.126L238.615 28.5846H247.674L250.217 14.7593Z" fill="black"/>
<path d="M288.2 14.7593H281.398L268.334 28.5846H285.689L288.2 14.7593Z" fill="black"/>
<path d="M194.401 22.5103C199.01 22.5103 202.475 24.8198 203.619 28.5846H213.059C211.978 20.1692 205.017 14 195.768 14C185.628 14 176.982 19.8845 173.454 28.5846H182.958C185.501 24.7882 189.792 22.5103 194.401 22.5103Z" fill="black"/>
<path d="M266.078 14.7593H257.019L254.476 28.5846H263.567L266.078 14.7593Z" fill="black"/>
<path d="M268.334 31.7482H263.567L262.422 38.0439L268.334 31.7482Z" fill="#FFC915"/>
<path d="M51.0795 31.7482C51.302 33.5831 51.2702 35.5446 50.9206 37.5377C50.6981 38.6766 50.412 39.7839 50.0624 40.8596H59.9477L61.6006 31.7482H51.0795Z" fill="#FFC915"/>
<path d="M271.227 40.8598H274.946L275.836 35.9561L271.227 40.8598Z" fill="#FFC915"/>
<path d="M173.263 32.2544C173.327 32.0962 173.391 31.9064 173.454 31.7482H168.019L167.923 32.2544H173.263Z" fill="#FFC915"/>
<path d="M166.398 40.6698L166.366 40.8913H171.738C171.738 40.828 171.738 40.7647 171.738 40.6698H166.398Z" fill="#FFC915"/>
<path d="M18.8807 36.9999C18.6264 38.3919 18.5946 39.689 18.7217 40.8596H40.4949C41.1306 39.689 41.5756 38.3919 41.8299 36.9999C42.1795 35.0384 42.0842 33.2667 41.6392 31.7482H20.9785C19.9614 33.2667 19.2303 35.0384 18.8807 36.9999Z" fill="#FFC915"/>
<path d="M9.78998 36.4621C10.076 34.8169 10.5528 33.2351 11.1568 31.7482H3.08321L0 40.8596H9.47212C9.40855 39.4359 9.50391 37.9806 9.78998 36.4621Z" fill="#FFC915"/>
<path d="M217.636 31.7482H213.091C213.313 33.5831 213.282 35.5446 212.932 37.5377C212.71 38.6766 212.423 39.7839 212.042 40.8596H220.433C218.018 38.8032 216.937 35.7344 217.636 31.7482Z" fill="#FFC915"/>
<path d="M247.674 31.7482L246.021 40.8596H252.823L254.476 31.7482H247.674Z" fill="#FFC915"/>
<path d="M152.126 31.7482L150.441 40.8596H157.244L158.928 31.7482H152.126Z" fill="#FFC915"/>
<path d="M133.754 31.7482L132.133 40.6065C132.101 40.7014 132.101 40.7963 132.069 40.8596H141.383L143.035 31.7482H133.754Z" fill="#FFC915"/>
<path d="M106.196 31.7482L101.46 36.6835L103.844 40.8596H123.01L124.663 31.7482H106.196Z" fill="#FFC915"/>
<path d="M293 31.7482H285.689L284.005 40.8596H289.821L293 31.7482Z" fill="#FFC915"/>
<path d="M180.86 36.9999C180.606 38.3919 180.574 39.689 180.701 40.8596H202.475C203.11 39.689 203.555 38.3919 203.81 36.9999C204.159 35.0384 204.064 33.2667 203.619 31.7482H182.958C181.941 33.2667 181.21 35.0384 180.86 36.9999Z" fill="#FFC915"/>
<path d="M92.2419 40.8597H94.4351L92.7823 37.9491L92.2419 40.8597Z" fill="#FFC915"/>
<path d="M70.6913 31.7482L69.0067 40.8596H83.183L84.8677 31.7482H70.6913Z" fill="#FFC915"/>
<path d="M232.067 35.5762C234.292 35.5762 236.326 35.1966 238.075 34.5955L238.615 31.7482H226.822C226.759 34.6588 228.539 35.5762 232.067 35.5762Z" fill="#FFC915"/>
<path d="M95.5476 31.7482H93.8948L93.5134 33.8995L95.5476 31.7482Z" fill="#FFC915"/>
<path d="M238.615 31.7482L238.074 34.5955C236.326 35.1966 234.26 35.5762 232.067 35.5762C228.539 35.5762 226.759 34.6271 226.791 31.7482H217.604C216.937 35.7344 217.986 38.8032 220.402 40.8596H246.021L247.674 31.7482H238.615Z" fill="#FFC915"/>
<path d="M268.334 31.7482L262.422 38.0439L263.567 31.7482H254.476L252.823 40.8596H271.227L275.836 35.9559L274.946 40.8596H284.005L285.689 31.7482H268.334Z" fill="#FFC915"/>
<path d="M106.196 31.7482H95.5477L93.5134 33.8995L93.8948 31.7482H84.8677L83.183 40.8596H92.2419L92.7823 37.949L94.4352 40.8596H103.844L101.46 36.6835L106.196 31.7482Z" fill="#FFC915"/>
<path d="M133.754 31.7482H124.695L123.01 40.8596H132.069C132.101 40.7647 132.101 40.6698 132.133 40.6065L133.754 31.7482Z" fill="#FFC915"/>
<path d="M213.059 31.7482H203.619C204.096 33.2667 204.191 35.0384 203.809 36.9999C203.555 38.3919 203.078 39.689 202.474 40.8596H212.01C212.392 39.7839 212.678 38.6766 212.9 37.5377C213.25 35.5446 213.313 33.5831 213.059 31.7482Z" fill="#FFC915"/>
<path d="M143.035 31.7482L141.383 40.8596H150.441L152.126 31.7482H143.035Z" fill="#FFC915"/>
<path d="M61.6006 31.7482L59.9477 40.8596H69.0066L70.6913 31.7482H61.6006Z" fill="#FFC915"/>
<path d="M51.0795 31.7482H41.6392C42.116 33.2667 42.2113 35.0384 41.8299 36.9999C41.5756 38.3919 41.0988 39.689 40.4949 40.8596H50.0624C50.412 39.7839 50.7299 38.6766 50.9206 37.5377C51.2702 35.5446 51.3338 33.5831 51.0795 31.7482Z" fill="#FFC915"/>
<path d="M180.86 36.9999C181.21 35.0384 181.973 33.2667 182.99 31.7482H173.486C173.422 31.9064 173.359 32.0962 173.295 32.2544H167.955L168.051 31.7482H158.928L157.275 40.8596H166.366L166.398 40.6381H171.738C171.738 40.7014 171.738 40.7647 171.738 40.8596H180.701C180.542 39.689 180.606 38.3919 180.86 36.9999Z" fill="#FFC915"/>
<path d="M18.8807 36.9999C19.2303 35.0384 19.9931 33.2667 21.0103 31.7482H11.1567C10.5528 33.2351 10.076 34.8169 9.78996 36.4621C9.50389 37.9806 9.40853 39.4359 9.4721 40.8596H18.7217C18.5628 39.689 18.6264 38.3919 18.8807 36.9999Z" fill="#FFC915"/>
</g>
<defs>
<clipPath id="clip0">
<rect width="293" height="46" fill="white" transform="translate(0 14)"/>
</clipPath>
</defs>
</svg>
