<svg width="265" height="32" viewBox="0 0 265 32" fill="none" xmlns="http://www.w3.org/2000/svg">
<path d="M83.5 15.7999C83.5 12.5999 86.5 10.3999 89.3 10.3999C92.7 10.3999 94.8 12.7999 94.8 16.5999V31.1999H98.6V16.1999C98.6 13.3999 100.1 10.3999 104.5 10.3999C107.9 10.3999 110 12.7999 110 16.5999V31.1999H113.8V16.5999C113.8 10.4999 110.4 6.79988 104.9 6.79988C101.7 6.79988 98.9 8.19988 97.1 10.5999C96 8.69988 93.8 6.79988 89.9 6.79988C87.3 6.79988 85 7.69988 83.4 9.49988V7.09988H79.6V31.1999H83.4V15.7999H83.5ZM39.6 18.7999C39.6 15.1999 38.4 12.0999 36.3 9.89988C34.3 7.79988 31.5 6.69988 28.4 6.69988C21.4 6.69988 16.3 11.8999 16.3 19.0999C16.3 26.3999 21.2 31.4999 28.3 31.4999C33 31.4999 36.6 29.4999 38.9 25.5999L39.1 25.2999L35.8 23.1999L35.6 23.5999C33.9 26.5999 31.6 27.8999 28.3 27.8999C23.8 27.8999 20.4 24.4999 20.1 19.9999H39.6V18.7999ZM20.3 16.5999C21.2 12.8999 24.4 10.2999 28.3 10.2999C32.1 10.2999 35.1 12.7999 35.7 16.5999H20.3ZM3.8 10.6999H14.8V7.09988H0V31.1999H3.8V10.6999ZM129.1 31.4999C133.8 31.4999 137.4 29.4999 139.7 25.5999L139.9 25.2999L136.6 23.1999L136.4 23.5999C134.7 26.5999 132.4 27.8999 129.1 27.8999C124.6 27.8999 121.2 24.4999 120.9 19.9999H140.4V18.7999C140.4 15.1999 139.2 12.0999 137.1 9.89988C135.1 7.79988 132.3 6.69988 129.2 6.69988C122.2 6.69988 117.1 11.8999 117.1 19.0999C117 26.3999 122 31.4999 129.1 31.4999ZM121.1 16.5999C122 12.8999 125.2 10.2999 129.1 10.2999C132.9 10.2999 135.9 12.7999 136.5 16.5999H121.1ZM74.6 -0.00012207H70.8V31.1999H74.6V-0.00012207ZM54.6 31.5999C57.4 31.5999 60.1 30.6999 62 28.9999V31.1999H65.8V7.19988H62V9.39988C60 7.69988 57.3 6.79988 54.6 6.79988C51.2 6.79988 48.1 8.09988 45.8 10.3999C43.6 12.6999 42.4 15.7999 42.4 19.2999C42.4 22.6999 43.6 25.8999 45.8 28.0999C48.1 30.3999 51.2 31.5999 54.6 31.5999ZM46.2 19.1999C46.2 14.2999 49.7 10.5999 54.4 10.5999C59.2 10.5999 62.5 14.0999 62.5 19.1999C62.5 24.2999 59.2 27.7999 54.4 27.7999C49.7 27.7999 46.2 24.0999 46.2 19.1999Z" fill="white"/>
<path d="M163.5 31.7998C168.7 31.7998 171.9 29.0998 171.9 24.6998C171.9 22.0998 170.8 20.0998 168.6 18.8998L168.4 18.7998L168.6 18.6998C170.2 17.5998 171.1 15.8998 171.1 13.6998C171.1 8.9998 167.3 6.7998 163.5 6.7998C159.7 6.7998 155.9 8.8998 155.9 13.6998C155.9 15.9998 156.7 17.6998 158.3 18.6998L158.5 18.7998L158.3 18.8998C156.2 20.0998 155.1 22.0998 155.1 24.6998C155 28.9998 158.3 31.7998 163.5 31.7998ZM163.5 10.2998C165.8 10.2998 167.4 11.6998 167.4 13.7998C167.4 15.7998 166 16.9998 163.5 16.9998C161.1 16.9998 159.6 15.7998 159.6 13.7998C159.6 11.6998 161.1 10.2998 163.5 10.2998ZM163.5 20.3998C166.4 20.3998 168.2 21.8998 168.2 24.2998C168.2 26.6998 166.4 28.1998 163.5 28.1998C160.6 28.1998 158.8 26.6998 158.8 24.2998C158.8 21.8998 160.6 20.3998 163.5 20.3998Z" fill="white"/>
<path d="M209.9 31.7998C215.1 31.7998 218.3 29.0998 218.3 24.6998C218.3 22.0998 217.2 20.0998 215 18.8998L214.8 18.7998L215 18.6998C216.6 17.5998 217.5 15.8998 217.5 13.6998C217.5 8.9998 213.7 6.7998 209.9 6.7998C206.1 6.7998 202.3 8.8998 202.3 13.6998C202.3 15.9998 203.1 17.6998 204.7 18.6998L204.9 18.7998L204.7 18.8998C202.6 20.0998 201.5 22.0998 201.5 24.6998C201.5 28.9998 204.8 31.7998 209.9 31.7998ZM209.9 10.2998C212.2 10.2998 213.8 11.6998 213.8 13.7998C213.8 15.7998 212.4 16.9998 209.9 16.9998C207.5 16.9998 206 15.7998 206 13.7998C206.1 11.6998 207.6 10.2998 209.9 10.2998ZM209.9 20.3998C212.8 20.3998 214.6 21.8998 214.6 24.2998C214.6 26.6998 212.8 28.1998 209.9 28.1998C207 28.1998 205.2 26.6998 205.2 24.2998C205.2 21.8998 207 20.3998 209.9 20.3998Z" fill="white"/>
<path d="M242 17.1998C242 19.4998 240.2 21.2998 237.9 21.2998H235.3V25.5998H233.2V13.0998H237.8C240.2 13.0998 242 14.7998 242 17.1998ZM240 17.1998C240 15.8998 239.1 14.9998 237.9 14.9998H235.3V19.3998H237.9C239.1 19.2998 240 18.3998 240 17.1998ZM248.2 16.4998V18.5998C246.9 18.4998 245.4 19.0998 245.4 21.0998V25.5998H243.5V16.6998H245.4V18.1998C246 16.8998 247 16.4998 248.2 16.4998ZM248.7 21.0998C248.7 18.3998 250.8 16.3998 253.4 16.3998C256 16.3998 258.1 18.3998 258.1 21.0998C258.1 23.6998 256 25.7998 253.4 25.7998C250.8 25.7998 248.7 23.6998 248.7 21.0998ZM256.2 21.0998C256.2 19.4998 255 18.2998 253.4 18.2998C251.8 18.2998 250.6 19.4998 250.6 21.0998C250.6 22.6998 251.8 23.8998 253.4 23.8998C255 23.8998 256.2 22.6998 256.2 21.0998ZM260.2 9.1998C261.8 9.1998 263 10.4998 263 11.9998V26.6998C263 28.2998 261.7 29.4998 260.2 29.4998H230.3C228.7 29.4998 227.5 28.1998 227.5 26.6998V12.0998C227.5 10.4998 228.8 9.2998 230.3 9.2998H260.2V9.1998ZM260.2 7.2998H230.3C227.7 7.2998 225.6 9.3998 225.6 11.9998V26.6998C225.6 29.2998 227.7 31.3998 230.3 31.3998H260.2C262.8 31.3998 264.9 29.2998 264.9 26.6998V12.0998C264.9 9.4998 262.8 7.2998 260.2 7.2998Z" fill="white"/>
<path d="M188.1 8.49988H186.9V29.3999H188.1V8.49988Z" fill="white"/>
</svg>
