<svg width="150" height="22" viewBox="0 0 150 22" fill="none" xmlns="http://www.w3.org/2000/svg">
<path d="M56.7667 10.7415C56.7667 8.56599 58.8062 7.07034 60.7097 7.07034C63.0212 7.07034 64.4489 8.70196 64.4489 11.2853V21.211H67.0322V11.0134C67.0322 9.10986 68.052 7.07034 71.0433 7.07034C73.3548 7.07034 74.7824 8.70196 74.7824 11.2853V21.211H77.3658V11.2853C77.3658 7.13832 75.0544 4.62291 71.3152 4.62291C69.1398 4.62291 67.2362 5.57469 66.0125 7.20631C65.2647 5.91461 63.769 4.62291 61.1176 4.62291C59.3501 4.62291 57.7864 5.23477 56.6987 6.45848V4.82687H54.1153V21.211H56.6987V10.7415H56.7667ZM26.9217 12.781C26.9217 10.3336 26.1059 8.22607 24.6782 6.73042C23.3185 5.30275 21.415 4.55493 19.3075 4.55493C14.5486 4.55493 11.0814 8.0901 11.0814 12.9849C11.0814 17.9478 14.4126 21.415 19.2395 21.415C22.4347 21.415 24.8822 20.0553 26.4458 17.4039L26.5818 17.2L24.3383 15.7723L24.2023 16.0442C23.0466 18.0838 21.483 18.9675 19.2395 18.9675C16.1802 18.9675 13.8687 16.6561 13.6648 13.5968H26.9217V12.781ZM13.8008 11.2853C14.4126 8.76994 16.5881 7.00236 19.2395 7.00236C21.8229 7.00236 23.8624 8.70196 24.2703 11.2853H13.8008ZM2.58339 7.27429H10.0616V4.82687H0V21.211H2.58339V7.27429ZM87.7674 21.415C90.9626 21.415 93.41 20.0553 94.9737 17.4039L95.1096 17.2L92.8662 15.7723L92.7302 16.0442C91.5745 18.0838 90.0109 18.9675 87.7674 18.9675C84.7081 18.9675 82.3966 16.6561 82.1927 13.5968H95.4496V12.781C95.4496 10.3336 94.6338 8.22607 93.2061 6.73042C91.8464 5.30275 89.9429 4.55493 87.8354 4.55493C83.0765 4.55493 79.6093 8.0901 79.6093 12.9849C79.5413 17.9478 82.9405 21.415 87.7674 21.415ZM82.3287 11.2853C82.9405 8.76994 85.116 7.00236 87.7674 7.00236C90.3508 7.00236 92.3903 8.70196 92.7982 11.2853H82.3287ZM50.7161 0H48.1327V21.211H50.7161V0ZM37.1193 21.483C39.0228 21.483 40.8584 20.8711 42.1501 19.7154V21.211H44.7335V4.89485H42.1501V6.3905C40.7904 5.23477 38.9548 4.62291 37.1193 4.62291C34.8078 4.62291 32.7003 5.50671 31.1367 7.07034C29.641 8.63397 28.8252 10.7415 28.8252 13.1209C28.8252 15.4324 29.641 17.6079 31.1367 19.1035C32.7003 20.6671 34.8078 21.483 37.1193 21.483ZM31.4086 13.0529C31.4086 9.72172 33.7881 7.20631 36.9833 7.20631C40.2465 7.20631 42.49 9.58575 42.49 13.0529C42.49 16.5201 40.2465 18.8996 36.9833 18.8996C33.7881 18.8996 31.4086 16.3842 31.4086 13.0529Z" fill="white"/>
<path d="M112.238 21.6189C115.774 21.6189 117.949 19.7834 117.949 16.7921C117.949 15.0245 117.201 13.6648 115.706 12.849L115.57 12.781L115.706 12.713C116.793 11.9652 117.405 10.8095 117.405 9.31382C117.405 6.11857 114.822 4.62292 112.238 4.62292C109.655 4.62292 107.072 6.05059 107.072 9.31382C107.072 10.8775 107.616 12.0332 108.703 12.713L108.839 12.781L108.703 12.849C107.276 13.6648 106.528 15.0245 106.528 16.7921C106.528 19.7154 108.771 21.6189 112.238 21.6189ZM112.238 7.00237C113.802 7.00237 114.89 7.95414 114.89 9.38181C114.89 10.7415 113.938 11.5573 112.238 11.5573C110.607 11.5573 109.587 10.7415 109.587 9.38181C109.655 7.95414 110.675 7.00237 112.238 7.00237ZM112.238 13.8688C114.21 13.8688 115.434 14.8885 115.434 16.5201C115.434 18.1517 114.21 19.1715 112.238 19.1715C110.267 19.1715 109.043 18.1517 109.043 16.5201C109.043 14.8885 110.267 13.8688 112.238 13.8688Z" fill="white"/>
<path d="M134.061 11.6933C134.061 13.2569 132.838 14.4807 131.274 14.4807H129.507V17.404H128.079V8.90596H131.206C132.838 8.90596 134.061 10.0617 134.061 11.6933ZM132.702 11.6933C132.702 10.8095 132.09 10.1977 131.274 10.1977H129.507V13.189H131.274C132.09 13.121 132.702 12.5091 132.702 11.6933ZM138.276 11.2174V12.6451C137.393 12.5771 136.373 12.985 136.373 14.3447V17.404H135.081V11.3534H136.373V12.3731C136.781 11.4894 137.461 11.2174 138.276 11.2174ZM138.616 14.3447C138.616 12.5091 140.044 11.1494 141.812 11.1494C143.579 11.1494 145.007 12.5091 145.007 14.3447C145.007 16.1123 143.579 17.5399 141.812 17.5399C140.044 17.5399 138.616 16.1123 138.616 14.3447ZM143.715 14.3447C143.715 13.2569 142.899 12.4411 141.812 12.4411C140.724 12.4411 139.908 13.2569 139.908 14.3447C139.908 15.4324 140.724 16.2482 141.812 16.2482C142.899 16.2482 143.715 15.4324 143.715 14.3447ZM146.435 6.25459C147.522 6.25459 148.338 7.13838 148.338 8.15814V18.1518C148.338 19.2395 147.454 20.0553 146.435 20.0553H126.107C125.02 20.0553 124.204 19.1716 124.204 18.1518V8.22612C124.204 7.13838 125.088 6.32257 126.107 6.32257H146.435V6.25459ZM146.435 4.96289H126.107C124.34 4.96289 122.912 6.39056 122.912 8.15814V18.1518C122.912 19.9194 124.34 21.347 126.107 21.347H146.435C148.202 21.347 149.63 19.9194 149.63 18.1518V8.22612C149.63 6.45854 148.202 4.96289 146.435 4.96289Z" fill="white"/>
</svg>
