<svg width="182" height="22" viewBox="0 0 182 22" fill="none" xmlns="http://www.w3.org/2000/svg">
<path d="M57.2421 10.8314C57.2421 8.63773 59.2987 7.12955 61.2182 7.12955C63.549 7.12955 64.9886 8.77484 64.9886 11.3799V21.3887H67.5937V11.1057C67.5937 9.18616 68.622 7.12955 71.6383 7.12955C73.9691 7.12955 75.4087 8.77484 75.4087 11.3799V21.3887H78.0138V11.3799C78.0138 7.19811 75.683 4.66163 71.9125 4.66163C69.7188 4.66163 67.7993 5.62138 66.5654 7.26666C65.8113 5.96415 64.3031 4.66163 61.6295 4.66163C59.8471 4.66163 58.2704 5.27861 57.1735 6.51257V4.86729H54.5685V21.3887H57.1735V10.8314H57.2421ZM27.1471 12.888C27.1471 10.4201 26.3245 8.29496 24.8849 6.78679C23.5138 5.34717 21.5943 4.59308 19.4692 4.59308C14.6704 4.59308 11.1742 8.15786 11.1742 13.0937C11.1742 18.0981 14.5333 21.5943 19.4006 21.5943C22.6226 21.5943 25.0905 20.2233 26.6673 17.5497L26.8044 17.344L24.5421 15.9044L24.405 16.1786C23.2396 18.2352 21.6629 19.1264 19.4006 19.1264C16.3157 19.1264 13.9849 16.7956 13.7792 13.7107H27.1471V12.888ZM13.9163 11.3799C14.5333 8.84339 16.727 7.061 19.4006 7.061C22.0056 7.061 24.0622 8.77484 24.4736 11.3799H13.9163ZM2.60503 7.33521H10.1459V4.86729H0V21.3887H2.60503V7.33521ZM88.5024 21.5943C91.7245 21.5943 94.1924 20.2233 95.7691 17.5497L95.9062 17.344L93.644 15.9044L93.5068 16.1786C92.3414 18.2352 90.7647 19.1264 88.5024 19.1264C85.4175 19.1264 83.0867 16.7956 82.8811 13.7107H96.249V12.888C96.249 10.4201 95.4263 8.29496 93.9867 6.78679C92.6156 5.34717 90.6961 4.59308 88.571 4.59308C83.7723 4.59308 80.276 8.15786 80.276 13.0937C80.2075 18.0981 83.6352 21.5943 88.5024 21.5943ZM83.0182 11.3799C83.6351 8.84339 85.8289 7.061 88.5024 7.061C91.1075 7.061 93.1641 8.77484 93.5754 11.3799H83.0182ZM51.1408 0H48.5358V21.3887H51.1408V0ZM37.4302 21.6629C39.3497 21.6629 41.2006 21.0459 42.5031 19.8805V21.3887H45.1081V4.93584H42.5031V6.44402C41.132 5.27861 39.2811 4.66163 37.4302 4.66163C35.0993 4.66163 32.9742 5.55282 31.3975 7.12955C29.8893 8.70628 29.0666 10.8314 29.0666 13.2308C29.0666 15.5616 29.8893 17.7553 31.3975 19.2635C32.9742 20.8402 35.0993 21.6629 37.4302 21.6629ZM31.6717 13.1623C31.6717 9.80314 34.071 7.26666 37.293 7.26666C40.5836 7.26666 42.8459 9.66603 42.8459 13.1623C42.8459 16.6585 40.5836 19.0578 37.293 19.0578C34.071 19.0578 31.6717 16.5214 31.6717 13.1623Z" fill="white"/>
<path d="M112.085 21.8C115.649 21.8 117.843 19.949 117.843 16.9327C117.843 15.1503 117.089 13.7792 115.581 12.9566L115.444 12.888L115.581 12.8195C116.678 12.0654 117.295 10.9 117.295 9.39181C117.295 6.1698 114.69 4.66162 112.085 4.66162C109.48 4.66162 106.875 6.10124 106.875 9.39181C106.875 10.9685 107.423 12.1339 108.52 12.8195L108.657 12.888L108.52 12.9566C107.08 13.7792 106.326 15.1503 106.326 16.9327C106.258 19.8805 108.52 21.8 112.085 21.8ZM112.085 7.06099C113.661 7.06099 114.758 8.02074 114.758 9.46036C114.758 10.8314 113.799 11.6541 112.085 11.6541C110.439 11.6541 109.411 10.8314 109.411 9.46036C109.411 8.02074 110.439 7.06099 112.085 7.06099ZM112.085 13.9849C114.073 13.9849 115.307 15.0132 115.307 16.6585C115.307 18.3037 114.073 19.332 112.085 19.332C110.097 19.332 108.863 18.3037 108.863 16.6585C108.863 15.0132 110.097 13.9849 112.085 13.9849Z" fill="white"/>
<path d="M143.894 21.8C147.459 21.8 149.652 19.949 149.652 16.9327C149.652 15.1503 148.898 13.7792 147.39 12.9566L147.253 12.888L147.39 12.8195C148.487 12.0654 149.104 10.9 149.104 9.39181C149.104 6.1698 146.499 4.66162 143.894 4.66162C141.289 4.66162 138.684 6.10124 138.684 9.39181C138.684 10.9685 139.232 12.1339 140.329 12.8195L140.466 12.888L140.329 12.9566C138.889 13.7792 138.135 15.1503 138.135 16.9327C138.135 19.8805 140.398 21.8 143.894 21.8ZM143.894 7.06099C145.47 7.06099 146.567 8.02074 146.567 9.46036C146.567 10.8314 145.608 11.6541 143.894 11.6541C142.248 11.6541 141.22 10.8314 141.22 9.46036C141.289 8.02074 142.317 7.06099 143.894 7.06099ZM143.894 13.9849C145.882 13.9849 147.116 15.0132 147.116 16.6585C147.116 18.3037 145.882 19.332 143.894 19.332C141.906 19.332 140.672 18.3037 140.672 16.6585C140.672 15.0132 141.906 13.9849 143.894 13.9849Z" fill="white"/>
<path d="M165.899 11.7913C165.899 13.368 164.665 14.602 163.088 14.602H161.306V17.5498H159.866V8.98061H163.02C164.665 8.98061 165.899 10.146 165.899 11.7913ZM164.528 11.7913C164.528 10.9001 163.911 10.2831 163.088 10.2831H161.306V13.2995H163.088C163.911 13.2309 164.528 12.6139 164.528 11.7913ZM170.149 11.3114V12.7511C169.258 12.6825 168.23 13.0938 168.23 14.4649V17.5498H166.927V11.4485H168.23V12.4768C168.641 11.5856 169.327 11.3114 170.149 11.3114ZM170.492 14.4649C170.492 12.6139 171.932 11.2429 173.714 11.2429C175.496 11.2429 176.936 12.6139 176.936 14.4649C176.936 16.2473 175.496 17.6869 173.714 17.6869C171.932 17.6869 170.492 16.2473 170.492 14.4649ZM175.634 14.4649C175.634 13.368 174.811 12.5454 173.714 12.5454C172.617 12.5454 171.795 13.368 171.795 14.4649C171.795 15.5617 172.617 16.3844 173.714 16.3844C174.811 16.3844 175.634 15.5617 175.634 14.4649ZM178.376 6.30703C179.473 6.30703 180.295 7.19823 180.295 8.22653V18.3039C180.295 19.4007 179.404 20.2234 178.376 20.2234H157.878C156.781 20.2234 155.959 19.3322 155.959 18.3039V8.29508C155.959 7.19823 156.85 6.37558 157.878 6.37558H178.376V6.30703ZM178.376 5.00452H157.878C156.096 5.00452 154.656 6.44414 154.656 8.22653V18.3039C154.656 20.0863 156.096 21.5259 157.878 21.5259H178.376C180.158 21.5259 181.598 20.0863 181.598 18.3039V8.29508C181.598 6.51269 180.158 5.00452 178.376 5.00452Z" fill="white"/>
<path d="M128.949 5.82715H128.126V20.1548H128.949V5.82715Z" fill="white"/>
</svg>
