<svg width="172" height="51" viewBox="0 0 172 51" fill="none" xmlns="http://www.w3.org/2000/svg">
<path d="M2.12595 11.9091L1 15.1873H106.839L108 11.9091H2.12595Z" fill="#FFC915"/>
<path d="M100.385 21.8007H103.705L104.715 16.3257H101.407L100.385 21.8007Z" fill="white"/>
<path d="M36.2295 5.79675H32.9097L31.9927 10.771H35.2893L36.2295 5.79675Z" fill="white"/>
<path d="M63.2754 5.79675H59.9556L59.0386 10.771H62.3584L63.2754 5.79675Z" fill="white"/>
<path d="M45.9219 16.3484C45.4925 18.6477 44.5174 19.0803 43.0432 18.8982L42.5093 21.8349C45.121 22.0739 48.2551 21.5276 49.2418 16.3257H45.9219V16.3484Z" fill="white"/>
<path d="M27.1753 8.81315H30.9014L31.4585 5.79675H20.6866L20.1294 8.81315H23.8555L23.4956 10.771H26.8154L27.1753 8.81315Z" fill="white"/>
<path d="M44.6337 5.79675H40.7219L35.8931 10.771H39.7817L44.6337 5.79675Z" fill="white"/>
<path d="M50.205 8.81315H53.6061L53.2346 10.771H56.5545L57.4715 5.79675H47.454L46.5254 10.771H49.8452L50.205 8.81315Z" fill="white"/>
<path d="M51.6099 21.8007H54.9297L55.9395 16.3257H52.6313L51.6099 21.8007Z" fill="white"/>
<path d="M11.2031 19.0233C9.32262 19.0233 8.04577 17.9875 7.83683 16.337H4.45898C4.59828 19.6152 7.21002 22.0853 10.8548 22.0853C14.9292 22.0853 18.1213 19.7404 19.282 16.337H15.7881C14.8943 17.9875 13.0835 19.0233 11.2031 19.0233Z" fill="white"/>
<path d="M30.3677 21.8007H33.6759L34.6858 16.3257H31.3775L30.3677 21.8007Z" fill="white"/>
<path d="M38.6668 21.8007H42.0911L38.9222 16.3257H35.4863L38.6668 21.8007Z" fill="white"/>
<path d="M21.8711 21.8007H25.1909L26.2008 16.3257H22.8926L21.8711 21.8007Z" fill="white"/>
<path d="M92.3184 21.8007H94.8024L100.049 16.3257H93.3282L92.3184 21.8007Z" fill="white"/>
<path d="M12.8403 8.58537C14.5234 8.58537 15.7886 9.4163 16.2065 10.7708H19.654C19.271 7.74305 16.7173 5.52344 13.3394 5.52344C9.46243 5.52344 6.36316 7.64061 5.07471 10.7708H8.66149C9.59011 9.40492 11.1572 8.58537 12.8403 8.58537Z" fill="white"/>
<path d="M57.4136 21.8007H60.7218L61.7433 16.3257H58.4234L57.4136 21.8007Z" fill="white"/>
<path d="M85.3299 17.4526C85.9916 17.4526 86.6764 17.3957 87.3613 17.2363L86.5139 21.8007H89.8221L90.8436 16.3257H81.4878C82.3468 17.0656 83.6816 17.4526 85.3299 17.4526Z" fill="white"/>
<path d="M70.3564 19.0233C68.476 19.0233 67.1991 17.9875 66.9902 16.337H63.7168C63.8329 19.6152 66.375 22.0853 70.0082 22.0853C73.8968 22.0853 77.2282 19.7404 78.4238 16.337H74.9415C74.0477 17.9875 72.2369 19.0233 70.3564 19.0233Z" fill="white"/>
<path d="M83.879 10.236L84.7031 5.80811H81.3949L80.4779 10.714C80.4779 10.7368 80.4663 10.7596 80.4663 10.7823H83.8209C83.8326 10.6116 83.8442 10.4295 83.879 10.236Z" fill="white"/>
<path d="M92.376 5.79675H89.0562L88.1392 10.771H91.4474L92.376 5.79675Z" fill="white"/>
<path d="M106.247 5.79675H103.763L98.9922 10.771H105.33L106.247 5.79675Z" fill="white"/>
<path d="M71.9932 8.58537C73.6764 8.58537 74.9416 9.4163 75.3595 10.7708H78.807C78.4123 7.74305 75.8702 5.52344 72.4924 5.52344C68.7895 5.52344 65.6322 7.64061 64.3438 10.7708H67.8145C68.7431 9.40492 70.3101 8.58537 71.9932 8.58537Z" fill="white"/>
<path d="M98.1685 5.79675H94.8603L93.9316 10.771H97.2515L98.1685 5.79675Z" fill="white"/>
<path d="M98.992 11.9092H97.2509L96.833 14.1743L98.992 11.9092Z" fill="#FFC915"/>
<path d="M19.6537 11.9092C19.7349 12.5694 19.7233 13.2751 19.5956 13.9922C19.5144 14.402 19.4099 14.8004 19.2822 15.1874H22.8922L23.4958 11.9092H19.6537V11.9092Z" fill="#FFC915"/>
<path d="M100.049 15.1874H101.407L101.732 13.4231L100.049 15.1874Z" fill="#FFC915"/>
<path d="M64.2738 12.0913C64.2971 12.0344 64.3203 11.9661 64.3435 11.9092H62.3586L62.3237 12.0913H64.2738Z" fill="#FFC915"/>
<path d="M61.7665 15.119L61.7549 15.1987H63.7166C63.7166 15.1759 63.7166 15.1532 63.7166 15.119H61.7665Z" fill="#FFC915"/>
<path d="M7.89511 13.7987C7.80225 14.2995 7.79064 14.7662 7.83707 15.1874H15.7884C16.0205 14.7662 16.183 14.2995 16.2759 13.7987C16.4036 13.093 16.3687 12.4555 16.2062 11.9092H8.66122C8.28977 12.4555 8.0228 13.093 7.89511 13.7987Z" fill="#FFC915"/>
<path d="M4.57518 13.6052C4.67965 13.0133 4.85376 12.4442 5.07431 11.9092H2.12595L1 15.1874H4.4591C4.43589 14.6752 4.47071 14.1516 4.57518 13.6052Z" fill="#FFC915"/>
<path d="M80.478 11.9092H78.8181C78.8994 12.5694 78.8878 13.2751 78.7601 13.9922C78.6788 14.402 78.5744 14.8004 78.4351 15.1874H81.4995C80.6173 14.4475 80.2227 13.3434 80.478 11.9092Z" fill="#FFC915"/>
<path d="M91.4474 11.9092L90.8438 15.1874H93.3278L93.9314 11.9092H91.4474Z" fill="#FFC915"/>
<path d="M56.5547 11.9092L55.9395 15.1874H58.4235L59.0387 11.9092H56.5547Z" fill="#FFC915"/>
<path d="M49.8452 11.9092L49.2532 15.0963C49.2416 15.1305 49.2416 15.1646 49.23 15.1874H52.631L53.2346 11.9092H49.8452V11.9092Z" fill="#FFC915"/>
<path d="M39.7813 11.9092L38.0518 13.6849L38.9223 15.1874H45.9218L46.5254 11.9092H39.7813Z" fill="#FFC915"/>
<path d="M108 11.9092H105.33L104.715 15.1874H106.839L108 11.9092Z" fill="#FFC915"/>
<path d="M67.0479 13.7987C66.9551 14.2995 66.9435 14.7662 66.9899 15.1874H74.9412C75.1734 14.7662 75.3359 14.2995 75.4287 13.7987C75.5564 13.093 75.5216 12.4555 75.3591 11.9092H67.8141C67.4426 12.4555 67.1756 13.093 67.0479 13.7987Z" fill="#FFC915"/>
<path d="M34.6855 15.1875H35.4865L34.8829 14.1403L34.6855 15.1875Z" fill="#FFC915"/>
<path d="M26.8154 11.9092L26.2002 15.1874H31.3772L31.9924 11.9092H26.8154Z" fill="#FFC915"/>
<path d="M85.7479 13.2865C86.5605 13.2865 87.3034 13.1499 87.9418 12.9336L88.1391 11.9092H83.8326C83.8094 12.9564 84.4595 13.2865 85.7479 13.2865Z" fill="#FFC915"/>
<path d="M35.8928 11.9092H35.2892L35.1499 12.6832L35.8928 11.9092Z" fill="#FFC915"/>
<path d="M88.1393 11.9092L87.942 12.9336C87.3035 13.1499 86.549 13.2865 85.7481 13.2865C84.4597 13.2865 83.8096 12.945 83.8212 11.9092H80.4666C80.2228 13.3434 80.6059 14.4475 81.4881 15.1874H90.8439L91.4475 11.9092H88.1393V11.9092Z" fill="#FFC915"/>
<path d="M98.9922 11.9092L96.8332 14.1743L97.251 11.9092H93.9312L93.3276 15.1874H100.049L101.732 13.4231L101.407 15.1874H104.715L105.33 11.9092H98.9922Z" fill="#FFC915"/>
<path d="M39.7814 11.9092H35.8928L35.15 12.6832L35.2892 11.9092H31.9926L31.3774 15.1874H34.6856L34.883 14.1402L35.4866 15.1874H38.9225L38.0519 13.6849L39.7814 11.9092Z" fill="#FFC915"/>
<path d="M49.8453 11.9092H46.5371L45.9219 15.1874H49.2301C49.2417 15.1532 49.2417 15.1191 49.2533 15.0963L49.8453 11.9092Z" fill="#FFC915"/>
<path d="M78.8063 11.9092H75.3588C75.5329 12.4555 75.5677 13.093 75.4284 13.7987C75.3356 14.2995 75.1615 14.7662 74.9409 15.1874H78.4232C78.5625 14.8004 78.667 14.402 78.7482 13.9922C78.8759 13.2751 78.8991 12.5694 78.8063 11.9092Z" fill="#FFC915"/>
<path d="M53.2349 11.9092L52.6313 15.1874H55.9395L56.5548 11.9092H53.2349Z" fill="#FFC915"/>
<path d="M23.4957 11.9092L22.8921 15.1874H26.2003L26.8155 11.9092H23.4957Z" fill="#FFC915"/>
<path d="M19.6535 11.9092H16.206C16.3801 12.4555 16.4149 13.093 16.2756 13.7987C16.1827 14.2995 16.0086 14.7662 15.7881 15.1874H19.282C19.4097 14.8004 19.5258 14.402 19.5954 13.9922C19.7231 13.2751 19.7463 12.5694 19.6535 11.9092Z" fill="#FFC915"/>
<path d="M67.048 13.7987C67.1757 13.093 67.4543 12.4555 67.8257 11.9092H64.355C64.3318 11.9661 64.3086 12.0344 64.2853 12.0913H62.3353L62.3701 11.9092H59.0387L58.4351 15.1874H61.7549L61.7665 15.1077H63.7166C63.7166 15.1305 63.7166 15.1532 63.7166 15.1874H66.9899C66.9319 14.7662 66.9551 14.2995 67.048 13.7987Z" fill="#FFC915"/>
<path d="M7.89491 13.7987C8.02259 13.093 8.30118 12.4555 8.67263 11.9092H5.07423C4.85369 12.4442 4.67957 13.0133 4.5751 13.6052C4.47063 14.1516 4.43581 14.6752 4.45902 15.1874H7.83687C7.77883 14.7662 7.80205 14.2995 7.89491 13.7987Z" fill="#FFC915"/>
<path d="M133.656 6.2H136.968L134.016 23H114.504L117.456 6.2H120.768L118.368 19.832H123.168L125.568 6.2H128.856L126.456 19.832H131.256L133.656 6.2ZM146.817 11H150.249L143.769 23C142.793 24.824 141.721 26.096 140.553 26.816C139.401 27.552 138.073 27.88 136.569 27.8L137.073 24.92C137.921 24.936 138.593 24.776 139.089 24.44C139.585 24.12 140.049 23.536 140.481 22.688L140.553 22.568L137.769 11H140.937L142.713 19.088L146.817 11ZM164.202 11L162.09 23H159.09L160.338 15.968L156.402 20.792H156.042L153.834 15.944L152.586 23H149.61L151.722 11H154.746L156.858 16.136L160.938 11H164.202ZM169.571 19.688L166.595 26.36H164.075L166.211 19.688H169.571Z" fill="white"/>
<path d="M8.748 39.664C8.604 40.504 8.208 41.104 7.56 41.464C8.316 41.956 8.61 42.658 8.442 43.57C8.298 44.338 7.938 44.938 7.362 45.37C6.786 45.79 6 46 5.004 46H0.27L1.854 37H6.228C7.092 37 7.758 37.258 8.226 37.774C8.706 38.29 8.88 38.92 8.748 39.664ZM5.67 38.908H3.69L3.42 40.528H5.364C6.048 40.528 6.432 40.258 6.516 39.718C6.564 39.454 6.516 39.256 6.372 39.124C6.228 38.98 5.994 38.908 5.67 38.908ZM6.228 43.174C6.276 42.922 6.222 42.724 6.066 42.58C5.91 42.436 5.676 42.364 5.364 42.364H3.096L2.79 44.038H5.076C5.376 44.038 5.628 43.966 5.832 43.822C6.048 43.666 6.18 43.45 6.228 43.174ZM19.0934 37L14.7554 41.446L17.6174 46H15.0974L12.5234 41.77L11.7854 46H9.46336L11.0474 37H13.3694L12.7034 40.798L16.3394 37H19.0934ZM28.0682 37L26.4842 46H24.1622L25.3502 39.232H22.8662L22.3442 42.238C22.0802 43.726 21.5822 44.764 20.8502 45.352C20.1182 45.928 19.1342 46.144 17.8982 46L18.2582 43.822C19.2062 44.014 19.8002 43.444 20.0402 42.112L20.9402 37H28.0682ZM38.3444 36.748C39.7244 36.748 40.7864 37.252 41.5304 38.26C42.2744 39.256 42.5264 40.414 42.2864 41.734C42.0704 43.006 41.4584 44.08 40.4504 44.956C39.4424 45.82 38.2904 46.252 36.9944 46.252C35.7824 46.252 34.8104 45.91 34.0784 45.226C33.3464 44.53 32.9384 43.648 32.8544 42.58H31.5044L30.9104 46H28.5884L30.1724 37H32.4944L31.9004 40.402H33.1604C33.5444 39.322 34.1984 38.446 35.1224 37.774C36.0464 37.09 37.1204 36.748 38.3444 36.748ZM40.0184 41.482C40.1504 40.738 40.0184 40.144 39.6224 39.7C39.2384 39.244 38.7044 39.016 38.0204 39.016C37.3364 39.016 36.7244 39.244 36.1844 39.7C35.6444 40.144 35.3024 40.744 35.1584 41.5C35.0384 42.256 35.1704 42.862 35.5544 43.318C35.9384 43.762 36.4664 43.984 37.1384 43.984C37.8224 43.984 38.4404 43.756 38.9924 43.3C39.5444 42.844 39.8864 42.238 40.0184 41.482ZM49.8788 37H52.2008L50.6168 46H48.2948L48.7988 43.174C48.0308 43.366 47.3288 43.462 46.6928 43.462C45.6008 43.462 44.7608 43.168 44.1728 42.58C43.5968 41.992 43.3988 41.206 43.5788 40.222L44.1368 37H46.4588L45.9368 39.952C45.8648 40.384 45.9428 40.72 46.1708 40.96C46.4108 41.188 46.7948 41.302 47.3228 41.302C47.8748 41.302 48.4988 41.182 49.1948 40.942L49.8788 37ZM60.8051 37H62.5331L60.9491 46H58.6811L59.5631 40.996L54.4511 46H52.7231L54.3071 37H56.5751L55.6931 42.004L60.8051 37ZM71.2306 38.44C71.8786 37.336 72.8866 36.796 74.2546 36.82L73.8046 39.412C73.3846 39.364 72.9706 39.394 72.5626 39.502C72.1666 39.598 71.7826 39.826 71.4106 40.186C71.0386 40.546 70.7926 41.02 70.6726 41.608L69.8986 46H67.5766L69.1606 37H71.4826L71.2306 38.44ZM75.925 38.062C76.945 37.186 78.121 36.748 79.453 36.748C80.785 36.748 81.835 37.21 82.603 38.134C83.371 39.046 83.629 40.168 83.377 41.5C83.353 41.764 83.269 42.082 83.125 42.454H76.321C76.369 43.03 76.591 43.456 76.987 43.732C77.383 44.008 77.881 44.146 78.481 44.146C79.381 44.146 80.119 43.84 80.695 43.228L82.333 44.542C81.325 45.682 79.981 46.252 78.301 46.252C76.813 46.252 75.679 45.778 74.899 44.83C74.131 43.882 73.861 42.712 74.089 41.32C74.293 40.012 74.905 38.926 75.925 38.062ZM76.645 40.636H81.217C81.205 40.024 81.019 39.574 80.659 39.286C80.311 38.986 79.861 38.836 79.309 38.836C78.709 38.836 78.175 38.992 77.707 39.304C77.251 39.616 76.897 40.06 76.645 40.636ZM92.5768 37H94.8988L93.3148 46H90.9928L91.1368 45.172C90.3568 45.892 89.3608 46.252 88.1488 46.252C86.7928 46.252 85.7848 45.754 85.1248 44.758C84.4648 43.762 84.2608 42.604 84.5128 41.284C84.7408 40 85.3168 38.926 86.2408 38.062C87.1768 37.186 88.2928 36.748 89.5888 36.748C90.8608 36.748 91.7848 37.234 92.3608 38.206L92.5768 37ZM88.8688 44.038C89.5648 44.038 90.1828 43.822 90.7228 43.39C91.2628 42.946 91.6108 42.364 91.7668 41.644L91.8028 41.356C91.8988 40.624 91.7428 40.042 91.3348 39.61C90.9388 39.178 90.3988 38.962 89.7148 38.962C89.0068 38.962 88.3828 39.19 87.8428 39.646C87.3028 40.09 86.9668 40.702 86.8348 41.482C86.7028 42.238 86.8288 42.856 87.2128 43.336C87.5968 43.804 88.1488 44.038 88.8688 44.038ZM95.456 46L96.446 40.348L97.76 32.86H100.082L98.75 40.438L97.778 46H95.456ZM111.405 36.748C112.425 36.748 113.199 37.09 113.727 37.774C114.267 38.458 114.441 39.352 114.249 40.456L113.259 46H110.937L111.873 40.618C111.969 40.078 111.909 39.658 111.693 39.358C111.489 39.058 111.147 38.908 110.667 38.908C109.659 38.908 108.999 39.478 108.687 40.618L107.751 46H105.429L106.365 40.618C106.461 40.078 106.401 39.658 106.185 39.358C105.981 39.058 105.645 38.908 105.177 38.908C104.649 38.908 104.199 39.076 103.827 39.412C103.467 39.748 103.233 40.24 103.125 40.888L102.225 46H99.9028L101.487 37H103.809L103.647 37.9C104.343 37.132 105.213 36.748 106.257 36.748C107.361 36.748 108.123 37.198 108.543 38.098C109.275 37.198 110.229 36.748 111.405 36.748ZM117.392 38.062C118.412 37.186 119.588 36.748 120.92 36.748C122.252 36.748 123.302 37.21 124.07 38.134C124.838 39.046 125.096 40.168 124.844 41.5C124.82 41.764 124.736 42.082 124.592 42.454H117.788C117.836 43.03 118.058 43.456 118.454 43.732C118.85 44.008 119.348 44.146 119.948 44.146C120.848 44.146 121.586 43.84 122.162 43.228L123.8 44.542C122.792 45.682 121.448 46.252 119.768 46.252C118.28 46.252 117.146 45.778 116.366 44.83C115.598 43.882 115.328 42.712 115.556 41.32C115.76 40.012 116.372 38.926 117.392 38.062ZM118.112 40.636H122.684C122.672 40.024 122.486 39.574 122.126 39.286C121.778 38.986 121.328 38.836 120.776 38.836C120.176 38.836 119.642 38.992 119.174 39.304C118.718 39.616 118.364 40.06 118.112 40.636Z" fill="white"/>
</svg>
