<svg width="151" height="22" viewBox="0 0 151 22" fill="none" xmlns="http://www.w3.org/2000/svg">
<path d="M57.2421 10.8314C57.2421 8.63774 59.2987 7.12956 61.2182 7.12956C63.5491 7.12956 64.9887 8.77484 64.9887 11.3799V21.3887H67.5937V11.1057C67.5937 9.18616 68.622 7.12956 71.6384 7.12956C73.9692 7.12956 75.4088 8.77484 75.4088 11.3799V21.3887H78.0138V11.3799C78.0138 7.19811 75.683 4.66164 71.9126 4.66164C69.7189 4.66164 67.7994 5.62138 66.5654 7.26667C65.8113 5.96415 64.3031 4.66164 61.6296 4.66164C59.8472 4.66164 58.2704 5.27862 57.1736 6.51258V4.8673H54.5686V21.3887H57.1736V10.8314H57.2421ZM27.1472 12.8881C27.1472 10.4201 26.3245 8.29497 24.8849 6.78679C23.5138 5.34717 21.5943 4.59308 19.4692 4.59308C14.6704 4.59308 11.1742 8.15786 11.1742 13.0937C11.1742 18.0981 14.5333 21.5943 19.4006 21.5943C22.6226 21.5943 25.0906 20.2233 26.6673 17.5497L26.8044 17.344L24.5421 15.9044L24.405 16.1786C23.2396 18.2352 21.6629 19.1264 19.4006 19.1264C16.3157 19.1264 13.9849 16.7956 13.7792 13.7107H27.1472V12.8881ZM13.9164 11.3799C14.5333 8.8434 16.727 7.06101 19.4006 7.06101C22.0057 7.06101 24.0623 8.77484 24.4736 11.3799H13.9164ZM2.60503 7.33522H10.1459V4.8673H0V21.3887H2.60503V7.33522ZM88.5025 21.5943C91.7245 21.5943 94.1925 20.2233 95.7692 17.5497L95.9063 17.344L93.644 15.9044L93.5069 16.1786C92.3415 18.2352 90.7648 19.1264 88.5025 19.1264C85.4176 19.1264 83.0868 16.7956 82.8811 13.7107H96.2491V12.8881C96.2491 10.4201 95.4264 8.29497 93.9868 6.78679C92.6157 5.34717 90.6962 4.59308 88.5711 4.59308C83.7723 4.59308 80.2761 8.15786 80.2761 13.0937C80.2076 18.0981 83.6352 21.5943 88.5025 21.5943ZM83.0182 11.3799C83.6352 8.8434 85.8289 7.06101 88.5025 7.06101C91.1076 7.06101 93.1642 8.77484 93.5755 11.3799H83.0182ZM51.1409 0H48.5359V21.3887H51.1409V0ZM37.4302 21.6629C39.3497 21.6629 41.2006 21.0459 42.5031 19.8805V21.3887H45.1082V4.93585H42.5031V6.44403C41.1321 5.27862 39.2811 4.66164 37.4302 4.66164C35.0994 4.66164 32.9742 5.55283 31.3975 7.12956C29.8893 8.70629 29.0667 10.8314 29.0667 13.2308C29.0667 15.5616 29.8893 17.7553 31.3975 19.2635C32.9742 20.8403 35.0994 21.6629 37.4302 21.6629ZM31.6717 13.1623C31.6717 9.80315 34.0711 7.26667 37.2931 7.26667C40.5836 7.26667 42.8459 9.66604 42.8459 13.1623C42.8459 16.6585 40.5836 19.0579 37.2931 19.0579C34.0711 19.0579 31.6717 16.5214 31.6717 13.1623Z" fill="white"/>
<path d="M113.179 21.8C116.744 21.8 118.937 19.949 118.937 16.9327C118.937 15.1503 118.183 13.7792 116.675 12.9566L116.538 12.888L116.675 12.8195C117.772 12.0654 118.389 10.9 118.389 9.39181C118.389 6.1698 115.784 4.66162 113.179 4.66162C110.574 4.66162 107.969 6.10124 107.969 9.39181C107.969 10.9685 108.517 12.1339 109.614 12.8195L109.751 12.888L109.614 12.9566C108.174 13.7792 107.42 15.1503 107.42 16.9327C107.42 19.8805 109.683 21.8 113.179 21.8ZM113.179 7.06099C114.756 7.06099 115.852 8.02074 115.852 9.46036C115.852 10.8314 114.893 11.6541 113.179 11.6541C111.534 11.6541 110.505 10.8314 110.505 9.46036C110.574 8.02074 111.602 7.06099 113.179 7.06099ZM113.179 13.9849C115.167 13.9849 116.401 15.0132 116.401 16.6585C116.401 18.3038 115.167 19.3321 113.179 19.3321C111.191 19.3321 109.957 18.3038 109.957 16.6585C109.957 15.0132 111.191 13.9849 113.179 13.9849Z" fill="white"/>
<path d="M135.185 11.7913C135.185 13.368 133.951 14.602 132.374 14.602H130.592V17.5498H129.152V8.98062H132.305C133.951 8.98062 135.185 10.146 135.185 11.7913ZM133.814 11.7913C133.814 10.9001 133.197 10.2831 132.374 10.2831H130.592V13.2995H132.374C133.197 13.2309 133.814 12.614 133.814 11.7913ZM139.435 11.3114V12.7511C138.544 12.6825 137.515 13.0938 137.515 14.4649V17.5498H136.213V11.4485H137.515V12.4768C137.927 11.5856 138.612 11.3114 139.435 11.3114ZM139.778 14.4649C139.778 12.614 141.217 11.2429 143 11.2429C144.782 11.2429 146.222 12.614 146.222 14.4649C146.222 16.2473 144.782 17.6869 143 17.6869C141.217 17.6869 139.778 16.2473 139.778 14.4649ZM144.919 14.4649C144.919 13.368 144.097 12.5454 143 12.5454C141.903 12.5454 141.08 13.368 141.08 14.4649C141.08 15.5617 141.903 16.3844 143 16.3844C144.097 16.3844 144.919 15.5617 144.919 14.4649ZM147.661 6.30703C148.758 6.30703 149.581 7.19823 149.581 8.22653V18.3039C149.581 19.4007 148.69 20.2234 147.661 20.2234H127.164C126.067 20.2234 125.244 19.3322 125.244 18.3039V8.29508C125.244 7.19823 126.136 6.37559 127.164 6.37559H147.661V6.30703ZM147.661 5.00452H127.164C125.382 5.00452 123.942 6.44414 123.942 8.22653V18.3039C123.942 20.0863 125.382 21.5259 127.164 21.5259H147.661C149.444 21.5259 150.883 20.0863 150.883 18.3039V8.29508C150.883 6.51269 149.444 5.00452 147.661 5.00452Z" fill="white"/>
</svg>
