<svg width="130" height="13" viewBox="0 0 130 13" fill="none" xmlns="http://www.w3.org/2000/svg">
<path fill-rule="evenodd" clip-rule="evenodd" d="M64.8605 9.34311C64.8605 8.32169 64.0494 7.51056 62.9979 7.51056H59.5131V11.2057H62.9979C64.0494 11.2057 64.8605 10.3946 64.8605 9.34311ZM59.5431 2.61375V6.09859H62.6675C63.6288 6.09859 64.4099 5.31751 64.4099 4.35617C64.4099 3.39483 63.6589 2.61375 62.6675 2.61375H59.5431ZM66.3927 9.40319C66.3927 11.2357 64.8906 12.6177 62.9979 12.6177H57.981V1.20178H62.6374C64.4399 1.20178 65.912 2.55366 65.912 4.32613C65.912 5.34755 65.4013 6.18872 64.6502 6.69943C65.7017 7.1801 66.3927 8.14144 66.3927 9.40319Z" fill="black"/>
<path fill-rule="evenodd" clip-rule="evenodd" d="M75.1043 3.60498V12.3772H73.5722V11.1154C72.9113 12.1669 71.9499 12.6175 70.7182 12.6175C68.6453 12.6175 67.2935 11.2356 67.2935 9.0125V3.60498H68.8256V8.92238C68.8256 10.3644 69.6668 11.1755 71.0186 11.1755C72.4306 11.1755 73.5722 10.3343 73.5722 8.26146V3.60498H75.1043Z" fill="black"/>
<path fill-rule="evenodd" clip-rule="evenodd" d="M84.087 7.96107C84.087 6.15857 82.7351 4.80669 80.9626 4.80669C79.1902 4.80669 77.8383 6.15857 77.8383 7.96107C77.8383 9.76358 79.1902 11.1155 80.9626 11.1155C82.7351 11.1155 84.087 9.76358 84.087 7.96107ZM85.6191 0V12.3772H84.087V10.8451C83.396 11.9266 82.2544 12.5875 80.7523 12.5875C78.3189 12.5875 76.3062 10.5447 76.3062 7.93103C76.3062 5.3174 78.3189 3.27455 80.7523 3.27455C82.2544 3.27455 83.366 3.93547 84.087 5.01698V0H85.6191Z" fill="black"/>
<path fill-rule="evenodd" clip-rule="evenodd" d="M93.4301 9.97384C93.4301 11.6261 91.9881 12.6175 90.0955 12.6175C88.293 12.6175 87.0613 11.7764 86.5205 10.5446L87.8724 9.79359C88.1728 10.6348 88.9839 11.1755 90.0955 11.1755C91.0568 11.1755 91.8679 10.8451 91.8679 9.97384C91.8679 8.08121 86.851 9.16271 86.851 5.94824C86.851 4.38607 88.2028 3.30457 90.0054 3.30457C91.4774 3.30457 92.649 3.99553 93.2198 5.13711L91.898 5.85812C91.5675 5.04699 90.7564 4.71653 89.9753 4.71653C89.1642 4.71653 88.3831 5.10707 88.3831 5.88816C88.4131 7.81083 93.4301 6.69929 93.4301 9.97384Z" fill="black"/>
<path fill-rule="evenodd" clip-rule="evenodd" d="M104.786 8.65215L102.743 3.00429L100.7 8.6221H104.786V8.65215ZM105.296 10.0641H100.159L99.228 12.6177H97.6357L101.902 1.20178H103.614L107.85 12.6177H106.228L105.296 10.0641Z" fill="black"/>
<path fill-rule="evenodd" clip-rule="evenodd" d="M108.421 12.6176H109.983V3.69514H108.421V12.6176ZM108.15 1.05146C108.15 0.480669 108.631 0 109.202 0C109.773 0 110.253 0.480669 110.253 1.05146C110.253 1.62226 109.773 2.07288 109.202 2.07288C108.631 2.07288 108.15 1.62226 108.15 1.05146Z" fill="black"/>
<path fill-rule="evenodd" clip-rule="evenodd" d="M115.961 3.60498V5.22724C114.669 5.16715 113.257 5.85811 113.257 7.931V12.6175H111.755V3.75519H113.257V5.25728C113.828 4.02557 114.88 3.60498 115.961 3.60498Z" fill="black"/>
<path fill-rule="evenodd" clip-rule="evenodd" d="M30.5526 6.90958C30.5526 5.70791 31.6641 4.92682 32.6856 4.92682C33.9473 4.92682 34.6984 5.79803 34.6984 7.24004V12.6175H36.1103V7.05979C36.1103 6.03837 36.6811 4.92682 38.2733 4.92682C39.505 4.92682 40.3162 5.82807 40.3162 7.24004V12.6175H41.7281V7.24004C41.7281 5.01694 40.4664 3.60498 38.4536 3.60498C37.2519 3.60498 36.2305 4.11569 35.5696 5.01694C35.149 4.32598 34.3679 3.60498 32.9259 3.60498C31.9646 3.60498 31.1234 3.96548 30.5225 4.59636V3.72515H29.1406V12.6175H30.5526V6.90958Z" fill="black"/>
<path fill-rule="evenodd" clip-rule="evenodd" d="M7.2101 7.21001C7.54056 5.85813 8.77227 4.92683 10.1842 4.92683C11.5962 4.92683 12.7077 5.82809 12.9481 7.21001H7.2101ZM14.4201 7.99109C14.4201 6.66926 13.9995 5.55771 13.1884 4.74658C12.4374 3.99554 11.3859 3.57495 10.2443 3.57495C7.60064 3.60499 5.70801 5.49763 5.70801 8.11126C5.70801 10.7549 7.54056 12.6175 10.1842 12.6175C11.9267 12.6175 13.3086 11.8965 14.1197 10.4846L14.1798 10.3644L12.9781 9.61335L12.918 9.73352C12.2571 10.815 11.4159 11.2957 10.2143 11.2957C8.53194 11.2957 7.24014 10.064 7.15001 8.44172H14.4201V7.99109Z" fill="black"/>
<path fill-rule="evenodd" clip-rule="evenodd" d="M1.41196 4.89678H5.40752V3.60498H0V12.3171H1.41196V4.89678Z" fill="black"/>
<path fill-rule="evenodd" clip-rule="evenodd" d="M44.1613 7.21001C44.4917 5.85813 45.7234 4.92683 47.1354 4.92683C48.5474 4.92683 49.6589 5.82809 49.8993 7.21001H44.1613ZM47.1354 12.6175C48.8778 12.6175 50.2598 11.8965 51.0709 10.4846L51.131 10.3644L49.8993 9.61335L49.8091 9.73352C49.1482 10.815 48.307 11.2957 47.1054 11.2957C45.423 11.2957 44.1312 10.064 44.0411 8.44172H51.3713V7.99109C51.3713 6.66926 50.9507 5.55771 50.1396 4.74658C49.3885 3.99554 48.3371 3.57495 47.1955 3.57495C44.5819 3.57495 42.6592 5.46758 42.6592 8.08122C42.6592 10.7549 44.4917 12.6175 47.1354 12.6175Z" fill="black"/>
<path fill-rule="evenodd" clip-rule="evenodd" d="M25.8359 12.6177H27.338V1.20178H25.8359V12.6177Z" fill="black"/>
<path fill-rule="evenodd" clip-rule="evenodd" d="M16.7333 8.11124C16.7333 6.33877 18.0551 4.98689 19.7675 4.98689C21.57 4.98689 22.7717 6.24865 22.7717 8.11124C22.7717 9.97383 21.57 11.2055 19.7675 11.2055C18.0551 11.2356 16.7333 9.8837 16.7333 8.11124ZM19.8576 12.6175C20.9091 12.6175 21.9004 12.287 22.6214 11.6862V12.4973H24.0334V3.75518H22.6214V4.5663C21.8704 3.96547 20.879 3.63501 19.8576 3.63501C18.5958 3.63501 17.4242 4.08564 16.583 4.92681C15.7719 5.73793 15.3213 6.87952 15.3213 8.11124C15.3213 9.34295 15.7719 10.4845 16.583 11.3257C17.4242 12.1669 18.5958 12.6175 19.8576 12.6175Z" fill="black"/>
<path d="M122.764 11.2993L126.566 7.38605C127.342 6.61078 127.969 5.7986 127.969 4.98642C127.969 3.8789 127.231 3.28822 126.271 3.28822C125.348 3.28822 124.647 3.76814 124.241 4.65416L122.727 3.76814C123.428 2.25453 124.794 1.5531 126.271 1.5531C128.08 1.5531 129.778 2.77137 129.778 4.9495C129.778 6.31544 128.966 7.45988 127.932 8.53049L125.459 11.0039H130V12.7391H122.764V11.2993Z" fill="black"/>
</svg>
