<svg width="734" height="114" viewBox="0 0 734 114" fill="none" xmlns="http://www.w3.org/2000/svg">
<path d="M44 57L97 2H631.34L688 57L631.34 112H95L44 57Z" fill="#021428" stroke="black"/>
<g clip-path="url(#clip0)">
<path d="M74.6348 1.17358C52.954 23.0034 40.7099 35.2093 19.0291 57.0391C40.7878 78.8688 52.954 91.0747 74.6348 112.826H57.3214C35.5626 91.0747 23.3964 78.7906 1.6377 57.0391C23.3964 35.2093 35.5626 23.0034 57.3214 1.17358H74.6348Z" stroke="#00BDFF" stroke-width="3.0403" stroke-miterlimit="10"/>
<path d="M107 1.17358C85.3194 23.0034 73.1532 35.2093 51.3945 57.0391C73.1532 78.8689 85.3194 91.0747 107 112.826H89.6867C67.928 90.9965 55.7618 78.7906 34.0811 57.0391C55.7618 35.2093 67.928 23.0034 89.6867 1.17358H107Z" fill="#00D9FF"/>
</g>
<g clip-path="url(#clip1)">
<path d="M659.365 112.826C681.046 90.9966 693.29 78.7907 714.971 56.9609C693.212 35.1311 681.046 22.9252 659.365 1.1737L676.679 1.1737C698.437 22.9252 710.604 35.2094 732.362 56.9609C710.604 78.7907 698.437 90.9966 676.679 112.826L659.365 112.826Z" stroke="#00BDFF" stroke-width="3.0403" stroke-miterlimit="10"/>
<path d="M627 112.826C648.681 90.9965 660.847 78.7906 682.606 56.9608C660.847 35.131 648.681 22.9251 627 1.17358L644.313 1.17358C666.072 23.0034 678.238 35.2093 699.919 56.9608C678.238 78.7906 666.072 90.9965 644.313 112.826L627 112.826Z" fill="#00D9FF"/>
</g>
<defs>
<clipPath id="clip0">
<rect width="107" height="114" fill="white"/>
</clipPath>
<clipPath id="clip1">
<rect width="107" height="114" fill="white" transform="translate(734 114) rotate(-180)"/>
</clipPath>
</defs>
</svg>
