<svg width="461" height="114" viewBox="0 0 461 114" fill="none" xmlns="http://www.w3.org/2000/svg">
<path d="M44 57L99 2H362L416.5 57L362 112H99L44 57Z" fill="#021428" stroke="black"/>
<g clip-path="url(#clip0)">
<path d="M74.6348 1.17358C52.954 23.0034 40.7099 35.2093 19.0291 57.0391C40.7878 78.8688 52.954 91.0747 74.6348 112.826H57.3214C35.5626 91.0747 23.3964 78.7906 1.6377 57.0391C23.3964 35.2093 35.5626 23.0034 57.3214 1.17358H74.6348Z" stroke="#00BDFF" stroke-width="3.0403" stroke-miterlimit="10"/>
<path d="M107 1.17358C85.3194 23.0034 73.1532 35.2093 51.3945 57.0391C73.1532 78.8689 85.3194 91.0747 107 112.826H89.6867C67.928 90.9965 55.7618 78.7906 34.0811 57.0391C55.7618 35.2093 67.928 23.0034 89.6867 1.17358H107Z" fill="#00D9FF"/>
</g>
<g clip-path="url(#clip1)">
<path d="M386.365 112.826C408.046 90.9966 420.29 78.7907 441.971 56.9609C420.212 35.1311 408.046 22.9252 386.365 1.1737L403.679 1.1737C425.437 22.9252 437.604 35.2094 459.362 56.9609C437.604 78.7907 425.437 90.9966 403.679 112.826L386.365 112.826Z" stroke="#00BDFF" stroke-width="3.0403" stroke-miterlimit="10"/>
<path d="M354 112.826C375.681 90.9966 387.847 78.7907 409.606 56.9609C387.847 35.1311 375.681 22.9253 354 1.1737L371.313 1.1737C393.072 23.0035 405.238 35.2094 426.919 56.9609C405.238 78.7907 393.072 90.9966 371.313 112.826L354 112.826Z" fill="#00D9FF"/>
</g>
<defs>
<clipPath id="clip0">
<rect width="107" height="114" fill="white"/>
</clipPath>
<clipPath id="clip1">
<rect width="107" height="114" fill="white" transform="translate(461 114) rotate(-180)"/>
</clipPath>
</defs>
</svg>
